<svg
  width="28"
  height="28"
  viewBox="0 0 28 28"
  fill="none"
  xmlns="http://www.w3.org/2000/svg"
>
  <path
    d="M 14 0 C 6.3 0 0 6.3 0 14 C 0 21.7 6.3 28 14 28 C 21.7 28 28 21.7 28 14 C 28 6.3 21.7 0 14 0 Z M 14 25.8 C 7.5 25.8 2.2 20.5 2.2 14 C 2.2 7.5 7.5 2.2 14 2.2 C 20.5 2.2 25.8 7.5 25.8 14 C 25.8 20.5 20.5 25.8 14 25.8 Z"
    fill="white"
  />
  <path
    d="M 14.2 6.7 C 13.6 6.7 13.1 7.2 13.1 7.8 V 14.8 C 13.1 15.4 13.6 15.9 14.2 15.9 C 14.8 15.9 15.3 15.4 15.3 14.8 V 7.8 C 15.3 7.2 14.8 6.7 14.2 6.7 Z"
    fill="white"
  />
  <path
    d="M 14.2 20.4 C 15 20.4 15.7 19.7 15.7 18.9 C 15.7 18.1 15 17.4 14.2 17.4 C 13.4 17.4 12.7 18.1 12.7 18.9 C 12.7 19.7 13.4 20.4 14.2 20.4 Z"
    fill="white"
  />
</svg>
