<svg width="12" height="12" viewBox="0 0 12 12" fill="none" xmlns="http://www.w3.org/2000/svg">
<path d="M6 0C2.68636 0 0 2.68636 0 6C0 9.31364 2.68636 12 6 12C9.31364 12 12 9.31364 12 6C12 2.68636 9.31364 0 6 0ZM6 11C3.23864 11 1.00001 8.76136 1.00001 6C1.00001 3.23864 3.23864 1.00001 6 1.00001C8.76136 1.00001 11 3.23864 11 6C11 8.76136 8.76136 11 6 11Z" fill="black"/>
<path d="M9.4 6.29932C9.40532 6.29222 9.41083 6.28526 9.41577 6.27787C9.42053 6.27075 9.42466 6.26336 9.42902 6.25608C9.43302 6.24937 9.43722 6.24283 9.44092 6.23592C9.44491 6.22849 9.44826 6.22085 9.45184 6.21325C9.45524 6.20604 9.45885 6.19896 9.46192 6.19158C9.46497 6.18422 9.46743 6.17669 9.4701 6.16924C9.47296 6.16132 9.47599 6.15349 9.47845 6.14538C9.4807 6.13793 9.48236 6.13033 9.48426 6.12279C9.48634 6.11451 9.48866 6.10636 9.49033 6.09792C9.49206 6.0892 9.49307 6.08039 9.49434 6.07162C9.49539 6.06426 9.4968 6.05704 9.49752 6.04957C9.50076 6.01676 9.50076 5.98371 9.49752 5.9509C9.4968 5.94344 9.49539 5.9362 9.49434 5.92884C9.49307 5.92005 9.49206 5.91126 9.49033 5.90254C9.48866 5.89413 9.48634 5.88595 9.48426 5.87768C9.48236 5.87013 9.4807 5.86256 9.47845 5.85508C9.47599 5.84697 9.47296 5.83915 9.4701 5.83122C9.46743 5.82377 9.46497 5.81625 9.46192 5.80889C9.45885 5.80151 9.45527 5.7944 9.45184 5.78721C9.44826 5.77961 9.44491 5.77197 9.44092 5.76454C9.43722 5.75765 9.43302 5.75109 9.42902 5.74439C9.42466 5.7371 9.42053 5.72972 9.41577 5.72259C9.41083 5.71521 9.40532 5.70825 9.4 5.70115C9.39555 5.69519 9.39142 5.6891 9.38666 5.68331C9.37628 5.67065 9.36534 5.65849 9.35378 5.64694C9.35369 5.64684 9.35364 5.64675 9.35355 5.64668L7.35356 3.64669C7.1583 3.45143 6.8417 3.45143 6.64645 3.64669C6.45119 3.84194 6.45119 4.15854 6.64645 4.3538L7.79289 5.50024H2.99999C2.72385 5.50024 2.5 5.72409 2.5 6.00023C2.5 6.27637 2.72385 6.50022 2.99999 6.50022H7.79289L6.64645 7.64667C6.45119 7.84193 6.45119 8.15852 6.64645 8.35378C6.8417 8.54903 7.1583 8.54903 7.35356 8.35378L9.35355 6.35379C9.35364 6.35369 9.35369 6.3536 9.35378 6.35353C9.36534 6.34195 9.37628 6.32981 9.38666 6.31715C9.39142 6.31136 9.39555 6.30525 9.4 6.29932Z" fill="black"/>
</svg>
