<svg width="20" height="20" viewBox="0 0 20 20" fill="none" xmlns="http://www.w3.org/2000/svg">
<g clip-path="url(#clip0)">
<path d="M19.4677 17.0002L13.1714 10.6689C13.4833 10.0154 13.3694 9.20773 12.829 8.66722C12.6837 8.52199 12.519 8.40785 12.3433 8.32418L13.1157 7.55183C13.7283 7.77562 14.4556 7.65097 14.9631 7.14343C15.6502 6.45644 15.6503 5.34449 14.9631 4.65738L10.8197 0.514058C10.1344 -0.171372 9.01909 -0.171333 8.3337 0.514058C7.74358 1.1041 7.66901 1.99382 8.06608 2.65734L2.67522 8.0482C2.00053 7.64632 1.11252 7.73523 0.532407 8.31535C-0.154624 9.00234 -0.154741 10.1143 0.532407 10.8014L4.67577 14.9448C5.36276 15.6318 6.47475 15.6319 7.16182 14.9448H7.16186C7.66026 14.4463 7.7958 13.7207 7.56928 13.0982L8.34248 12.325C8.42616 12.5007 8.5403 12.6653 8.68553 12.8106C9.22163 13.3467 10.026 13.4674 10.6847 13.1543C11.0606 13.5323 16.662 19.1647 16.9806 19.4851C17.666 20.1705 18.7812 20.1705 19.4666 19.4851C20.1605 18.7912 20.1462 17.6786 19.4677 17.0002ZM9.16237 1.34273C9.39084 1.11429 9.7626 1.11425 9.99108 1.34273L14.1344 5.48613C14.3634 5.71515 14.3634 6.08582 14.1344 6.3148C13.9054 6.54378 13.5347 6.54382 13.3057 6.3148L9.16237 2.17144C8.93389 1.94292 8.93389 1.57121 9.16237 1.34273ZM6.33307 14.1161C6.10413 14.3451 5.73342 14.3451 5.5044 14.1161L1.36104 9.97273C1.13202 9.74371 1.13202 9.37308 1.36104 9.14406C1.58956 8.91558 1.96124 8.91562 2.18975 9.14406L6.33307 13.2874C6.56159 13.5159 6.56159 13.8877 6.33307 14.1161ZM6.85663 12.1536L3.5419 8.83886L8.85721 3.52359L12.1719 6.83832C11.9833 7.02687 7.30295 11.7072 6.85663 12.1536ZM10.3441 11.9808L10.343 11.9819C10.1144 12.2104 9.74276 12.2104 9.51424 11.9819C9.2853 11.753 9.28518 11.3825 9.51412 11.1534C9.68971 10.9778 10.9698 9.69777 11.1716 9.49593C11.4002 9.26734 11.772 9.26761 12.0003 9.49593C12.2287 9.72441 12.2287 10.0962 12.0003 10.3246L10.3441 11.9808ZM11.5848 12.3975L12.4135 11.5687L16.572 15.7504L15.7433 16.5791L11.5848 12.3975ZM18.638 18.6564C18.4094 18.8849 18.0377 18.8849 17.8104 18.6576L16.5697 17.41L17.3984 16.5814L18.638 17.8278C18.867 18.0568 18.867 18.4274 18.638 18.6564Z" fill="white"/>
<path d="M12.3255 18.8282H11.6806C11.4084 17.4925 10.2246 16.4844 8.80972 16.4844H4.12202C2.70714 16.4844 1.52339 17.4925 1.25116 18.8282H0.60624C0.282647 18.8282 0.0202637 19.0905 0.0202637 19.4142C0.0202637 19.7378 0.282607 20.0002 0.60624 20.0002C0.924912 20.0002 12.0164 20.0002 12.3255 20.0002C12.6491 20.0002 12.9114 19.7378 12.9114 19.4142C12.9114 19.0905 12.6491 18.8282 12.3255 18.8282ZM2.46452 18.8282C2.70636 18.1461 3.35804 17.6563 4.12202 17.6563H8.80972C9.5737 17.6563 10.2253 18.1461 10.4672 18.8282H2.46452Z" fill="white"/>
</g>
<defs>
<clipPath id="clip0">
<rect width="20" height="20" fill="white"/>
</clipPath>
</defs>
</svg>
