<svg width="20" height="20" viewBox="0 0 20 20" fill="none" xmlns="http://www.w3.org/2000/svg">
<path d="M18.2031 8.98438C18.5267 8.98438 18.7891 8.72203 18.7891 8.39844V6.64062H19.4141C19.7377 6.64062 20 6.37828 20 6.05469V4.10156C20 3.85703 19.8481 3.6382 19.6191 3.55266L10.205 0.0370313C10.0728 -0.0123437 9.92723 -0.0123437 9.795 0.0370313L0.380937 3.55266C0.151875 3.6382 0 3.85703 0 4.10156V6.05469C0 6.37828 0.262344 6.64062 0.585938 6.64062H1.21094V8.39844C1.21094 8.72203 1.47328 8.98438 1.79688 8.98438H1.99219V14.1406H1.79688C1.47328 14.1406 1.21094 14.403 1.21094 14.7266V16.4844H0.585938C0.262344 16.4844 0 16.7467 0 17.0703V19.4141C0 19.7377 0.262344 20 0.585938 20H19.4141C19.7377 20 20 19.7377 20 19.4141V17.0703C20 16.7467 19.7377 16.4844 19.4141 16.4844H18.7891V14.7266C18.7891 14.403 18.5267 14.1406 18.2031 14.1406H18.0078V8.98438H18.2031ZM18.8281 17.6562V18.8281H1.17188V17.6562H18.8281ZM2.38281 7.8125V6.64062H5.11719V7.8125H2.38281ZM4.33594 8.98438V14.1406H3.16406V8.98438H4.33594ZM5.11719 15.3125V16.4844H2.38281V15.3125H5.11719ZM8.04688 8.98438H8.24219V14.1406H8.04688C7.72328 14.1406 7.46094 14.403 7.46094 14.7266V16.4844H6.28906V14.7266C6.28906 14.403 6.02672 14.1406 5.70312 14.1406H5.50781V8.98438H5.70312C6.02672 8.98438 6.28906 8.72203 6.28906 8.39844V6.64062H7.46094V8.39844C7.46094 8.72203 7.72328 8.98438 8.04688 8.98438ZM8.63281 7.8125V6.64062H11.3672V7.8125H8.63281ZM10.5859 8.98438V14.1406H9.41406V8.98438H10.5859ZM11.3672 15.3125V16.4844H8.63281V15.3125H11.3672ZM14.2969 8.98438H14.4922V14.1406H14.2969C13.9733 14.1406 13.7109 14.403 13.7109 14.7266V16.4844H12.5391V14.7266C12.5391 14.403 12.2767 14.1406 11.9531 14.1406H11.7578V8.98438H11.9531C12.2767 8.98438 12.5391 8.72203 12.5391 8.39844V6.64062H13.7109V8.39844C13.7109 8.72203 13.9733 8.98438 14.2969 8.98438ZM14.8828 7.8125V6.64062H17.6172V7.8125H14.8828ZM16.8359 8.98438V14.1406H15.6641V8.98438H16.8359ZM17.6172 15.3125V16.4844H14.8828V15.3125H17.6172ZM1.17188 5.46875V4.5082L10 1.21141L18.8281 4.5082V5.46875H1.17188Z" fill="black"/>
<path d="M12.3438 3.125H7.65625C7.33266 3.125 7.07031 3.38734 7.07031 3.71094C7.07031 4.03453 7.33266 4.29688 7.65625 4.29688H12.3438C12.6673 4.29688 12.9297 4.03453 12.9297 3.71094C12.9297 3.38734 12.6673 3.125 12.3438 3.125Z" fill="black"/>
</svg>
