<svg width="24" height="24" viewBox="0 0 24 24" fill="none" xmlns="http://www.w3.org/2000/svg">
<g clip-path="url(#clip0)">
<path d="M14.76 20.6101C15.9214 20.2392 16.995 19.6352 17.915 18.8351V5.16514C16.9944 4.36589 15.921 3.76201 14.76 3.39014V20.6101Z" fill="black"/>
<path d="M9.23996 3.39014C8.07854 3.76111 7.00499 4.36509 6.08496 5.16514V18.8351C7.00555 19.6344 8.07893 20.2383 9.23996 20.6101V3.39014Z" fill="black"/>
<path d="M19.035 17.675C20.3313 16.0676 21.0383 14.0649 21.0383 12C21.0383 9.93501 20.3313 7.93231 19.035 6.32495V17.675Z" fill="black"/>
<path d="M13.64 3.11004C12.9337 2.98747 12.2151 2.95054 11.5 3.00004C11.1174 3.01975 10.7366 3.06485 10.36 3.13504V20.89C11.0653 21.021 11.7838 21.0663 12.5 21.025C12.8826 21.0053 13.2634 20.9602 13.64 20.89V3.11004ZM12 19.97C11.8586 19.97 11.7203 19.9281 11.6028 19.8495C11.4852 19.771 11.3935 19.6593 11.3394 19.5287C11.2853 19.398 11.2711 19.2543 11.2987 19.1156C11.3263 18.9769 11.3944 18.8495 11.4944 18.7495C11.5944 18.6495 11.7218 18.5814 11.8605 18.5538C11.9992 18.5262 12.143 18.5404 12.2736 18.5945C12.4043 18.6486 12.5159 18.7402 12.5945 18.8578C12.6731 18.9754 12.715 19.1136 12.715 19.255C12.715 19.4447 12.6397 19.6265 12.5056 19.7606C12.3715 19.8947 12.1896 19.97 12 19.97Z" fill="black"/>
<path d="M4.96503 6.32495C3.66874 7.93231 2.96179 9.93501 2.96179 12C2.96179 14.0649 3.66874 16.0676 4.96503 17.675V6.32495Z" fill="black"/>
<path d="M12 0C9.62663 0 7.30655 0.703788 5.33316 2.02236C3.35977 3.34094 1.8217 5.21509 0.913451 7.4078C0.00519943 9.60051 -0.232441 12.0133 0.230582 14.3411C0.693605 16.6689 1.83649 18.8071 3.51472 20.4853C5.19295 22.1635 7.33115 23.3064 9.65892 23.7694C11.9867 24.2324 14.3995 23.9948 16.5922 23.0866C18.7849 22.1783 20.6591 20.6402 21.9776 18.6668C23.2962 16.6935 24 14.3734 24 12C24 8.8174 22.7357 5.76515 20.4853 3.51472C18.2348 1.26428 15.1826 0 12 0V0ZM12 22.32C9.95806 22.324 7.96083 21.7221 6.26108 20.5905C4.56134 19.4589 3.23549 17.8486 2.45132 15.9632C1.66716 14.0778 1.45993 12.0022 1.85587 9.99896C2.25181 7.99576 3.23311 6.15504 4.67559 4.70976C6.11807 3.26448 7.95688 2.27961 9.95931 1.87978C11.9617 1.47996 14.0378 1.68316 15.9247 2.46366C17.8116 3.24417 19.4245 4.5669 20.5594 6.26444C21.6942 7.96199 22.3 9.95805 22.3 12C22.3 14.7336 21.2155 17.3555 19.2844 19.2903C17.3534 21.2251 14.7336 22.3147 12 22.32Z" fill="black"/>
</g>
<defs>
<clipPath id="clip0">
<rect width="24" height="24" fill="white"/>
</clipPath>
</defs>
</svg>
