<svg width="14" height="36" viewBox="0 0 14 36" fill="black" xmlns="http://www.w3.org/2000/svg">
<path d="M13.8718 16.263C13.9333 15.9004 13.973 15.5348 13.9906 15.1681C14.0107 14.5339 14.0276 13.9864 13.7129 13.4816C13.4054 12.9895 12.9301 12.7584 12.328 12.4652L12.1763 12.3904C11.7854 12.1997 11.3992 11.908 10.9898 11.5991L10.8051 11.46C10.7939 11.1048 10.8132 10.7346 10.83 10.401C10.8372 10.2514 10.8573 10.0824 10.879 9.90738C10.9007 9.73238 10.9239 9.53792 10.9368 9.33749C11.001 8.32858 10.7762 7.42437 10.5539 6.54933C10.5089 6.37133 10.4647 6.19408 10.4222 6.01533C10.3442 5.62546 10.3069 5.22948 10.3106 4.83291C10.3186 4.74567 10.3326 4.65899 10.3524 4.57339C10.4069 4.33823 10.4338 4.09824 10.4326 3.85765C10.4254 3.4837 10.3973 3.12097 10.37 2.76946C10.3451 2.45759 10.3227 2.16366 10.3138 1.87198C10.2841 0.842879 9.55919 0.0882518 8.54766 0.0366469C8.04752 0.0127142 7.54015 0 7.04643 0C6.51337 0 5.98191 0.0149579 5.46571 0.0448738C4.46462 0.10321 3.74451 0.860829 3.71641 1.88844C3.70437 2.3125 3.67386 2.73581 3.64175 3.1838C3.6257 3.40816 3.60884 3.63852 3.59519 3.86663C3.59519 3.88158 3.58877 3.92272 3.58475 3.95189C3.55666 4.16653 3.51009 4.52552 3.67868 4.91069C3.81917 5.22929 3.75174 5.60698 3.5984 6.11331C3.07979 7.81627 2.98346 9.44369 3.30377 11.0898C3.35997 11.3777 3.28531 11.4765 3.23554 11.5094C3.11993 11.5842 3.00433 11.6649 2.88953 11.7435C2.47769 12.0247 2.08673 12.2894 1.7054 12.4517C0.382385 13.0089 -0.174758 13.9056 0.047618 15.118C0.159207 15.7238 0.259557 16.3146 0.267585 16.8755C0.31495 20.0915 0.347865 22.9948 0.329401 25.8997C0.321373 27.1486 0.265177 28.432 0.212192 29.6705C0.179277 30.4454 0.144757 31.2464 0.121476 32.0384C0.098543 32.6346 0.129426 33.2315 0.213798 33.8229C0.355893 34.757 1.06958 35.4338 2.0787 35.5894L2.43514 35.6455C2.87668 35.715 3.33267 35.7868 3.7999 35.837C4.26713 35.8871 4.74962 35.9215 5.20801 35.9536C5.40229 35.9671 5.59577 35.9806 5.79004 35.9955L5.83982 36H8.27872L8.33813 35.994L8.59021 35.9738C8.7869 35.9566 8.99161 35.9387 9.20034 35.9147L9.63706 35.8631C10.4094 35.7734 11.2081 35.6799 11.9973 35.5759C12.9687 35.4473 13.6687 34.7921 13.8245 33.8648C13.9199 33.3301 13.9608 32.7882 13.9465 32.2463C13.932 31.8395 13.8951 31.4408 13.8598 31.0549C13.818 30.5979 13.7795 30.1664 13.7795 29.7446C13.7578 25.4494 13.757 21.226 13.7795 17.1919C13.7883 16.8807 13.8191 16.5704 13.8718 16.263Z" fill="black"/>
</svg>
