<svg width="14" height="36" viewBox="0 0 14 36" fill="none" xmlns="http://www.w3.org/2000/svg">
<path d="M13.8783 16.4321C13.9371 16.0578 13.9748 15.6804 13.9914 15.3019C14.0108 14.6434 14.031 13.9627 13.6449 13.3014C13.2588 12.64 12.7085 12.3578 12.1127 12.0498L11.978 11.978C11.7187 11.843 11.4334 11.6189 11.1316 11.377C11.1352 11.1615 11.1453 10.9418 11.1547 10.7372C11.1604 10.6144 11.1777 10.4672 11.195 10.3106C11.2152 10.1354 11.2375 9.93725 11.2505 9.72542C11.3146 8.64833 11.0884 7.69044 10.8903 6.84241C10.8514 6.6751 10.8118 6.50779 10.775 6.33976C10.7169 6.02501 10.6887 5.70549 10.6908 5.38546C10.6951 5.35243 10.7066 5.29211 10.7153 5.24687C10.775 4.97177 10.8052 4.6911 10.8053 4.40961C10.7981 4.03263 10.7722 3.6736 10.747 3.32678C10.7253 3.03955 10.7059 2.76095 10.6987 2.49814C10.6612 1.14244 9.70606 0.107709 8.43176 0.0380572C7.96498 0.0129251 7.49676 0 7.04006 0C6.54734 0 6.05534 0.0150793 5.57776 0.0445198C4.31139 0.122788 3.36773 1.16111 3.33244 2.51321C3.32235 2.90528 3.2957 3.30308 3.26689 3.72602C3.25248 3.94144 3.23735 4.16188 3.22511 4.37946C3.22511 4.39525 3.2215 4.41105 3.21934 4.42613C3.19053 4.66524 3.1293 5.16214 3.35261 5.70571C3.40303 5.82922 3.32019 6.15666 3.2532 6.39218C2.76985 8.09111 2.67044 9.71968 2.95065 11.3662L2.8815 11.4172C2.54294 11.6642 2.22383 11.8976 1.94505 12.0225C-0.0459827 12.9194 -0.0964069 14.4948 0.0505436 15.3543C0.144188 15.9065 0.23135 16.4436 0.237833 16.9297C0.280334 20.0174 0.309868 22.7941 0.2933 25.5795C0.284656 26.7693 0.235672 27.9936 0.18813 29.177C0.158595 29.923 0.127621 30.6942 0.106731 31.459C0.0849239 32.0715 0.115045 32.6847 0.196774 33.2922C0.272845 33.8695 0.535304 34.4065 0.944515 34.8221C1.35373 35.2377 1.88747 35.5092 2.46514 35.5957L2.78281 35.6496C3.18765 35.7178 3.60689 35.7889 4.04558 35.8392C4.48427 35.8894 4.91864 35.9217 5.33716 35.9533C5.50932 35.9663 5.68149 35.9792 5.85365 35.9935L5.92568 36H8.17964L8.26897 35.9907L8.49155 35.9698C8.67452 35.9526 8.86253 35.9354 9.06207 35.9102L9.45466 35.8607C10.1505 35.7738 10.8701 35.6841 11.5826 35.5835C12.7625 35.4169 13.6456 34.5366 13.8336 33.341C13.9262 32.7833 13.9656 32.218 13.9511 31.6529C13.9374 31.2421 13.9042 30.8501 13.8711 30.4702C13.8351 30.0466 13.7991 29.6466 13.7991 29.2703C13.7803 25.1479 13.7796 21.0952 13.7991 17.2249C13.8092 16.9592 13.8357 16.6945 13.8783 16.4321ZM11.4716 15.2279C11.457 15.5149 11.4269 15.8008 11.3816 16.0846C11.3209 16.4588 11.2858 16.8366 11.2764 17.2155C11.2598 21.0931 11.2606 25.1544 11.2764 29.2833C11.2764 29.7608 11.3196 30.2311 11.3585 30.6863C11.3895 31.0497 11.419 31.3929 11.4306 31.7362C11.4396 32.1449 11.4099 32.5536 11.342 32.9569C11.3218 33.0861 11.2829 33.0919 11.2289 33.1005C10.5366 33.1981 9.82779 33.2872 9.13986 33.3726L8.74439 33.4222C8.58736 33.4423 8.42888 33.4566 8.26104 33.4724L8.0507 33.4925H6.03157L5.55542 33.4552H5.52661C5.13186 33.4258 4.72487 33.3949 4.333 33.3504C3.9613 33.308 3.59392 33.2455 3.20494 33.1795L3.161 33.1723L2.87718 33.1242C2.74031 33.1019 2.70718 33.0452 2.69349 32.949C2.63126 32.4804 2.60909 32.0074 2.62722 31.5351C2.64739 30.7905 2.67764 30.0308 2.70718 29.2962V29.2854C2.75544 28.0819 2.80515 26.8368 2.81379 25.6053C2.83396 22.7949 2.80082 20.0045 2.75832 16.9032C2.74896 16.2354 2.64739 15.5927 2.53502 14.9385C2.49107 14.6808 2.46874 14.5508 2.98883 14.316C3.50892 14.0812 3.94617 13.7609 4.37334 13.4493L5.69589 12.4864L5.43585 10.9533C5.21974 9.68306 5.29898 8.41783 5.67788 7.08511C5.8767 6.38572 6.01645 5.6296 5.71102 4.82753C5.71102 4.80168 5.7175 4.76721 5.7211 4.73777C5.72471 4.70833 5.72975 4.67242 5.73263 4.6437L5.73839 4.58698V4.53025C5.75064 4.32057 5.76505 4.11162 5.77873 3.90194C5.80899 3.45316 5.8378 3.0295 5.85077 2.58502C5.84998 2.57474 5.84998 2.56442 5.85077 2.55414C6.23831 2.53188 6.63666 2.52111 7.03573 2.52111C7.40743 2.52111 7.78778 2.53045 8.16884 2.54912C8.16884 2.55702 8.16884 2.56491 8.16884 2.57425C8.17748 2.8945 8.20053 3.21045 8.22286 3.51635C8.24664 3.84522 8.26897 4.15542 8.27545 4.46562C8.27058 4.57396 8.25587 4.68163 8.23151 4.78731C8.21494 4.87348 8.20125 4.95031 8.18973 5.02786L8.16091 5.22749V5.42854C8.15996 5.91801 8.20822 6.40634 8.30498 6.88621C8.34316 7.06285 8.38494 7.23806 8.426 7.41326V7.42475C8.60177 8.17226 8.76745 8.87811 8.72495 9.5854C8.7163 9.72901 8.69901 9.88555 8.68172 10.0363C8.66011 10.2266 8.63778 10.4234 8.6277 10.6287C8.61761 10.8442 8.60609 11.0912 8.60177 11.3468L8.59168 12.5661L9.5483 13.3351C9.94737 13.6568 10.3407 13.9649 10.8075 14.2068L10.9451 14.2786C11.1232 14.3657 11.2962 14.4631 11.463 14.5702C11.4875 14.6923 11.4781 15.0118 11.4716 15.2279Z" fill="black"/>
</svg>
