<svg width="43" height="43" viewBox="0 0 43 43" fill="none" xmlns="http://www.w3.org/2000/svg">
<g clip-path="url(#clip0)">
<path d="M19.9206 15.9008L16.3355 13.5972C16.9232 11.126 16.3471 9.29186 15.9177 7.92485C15.4666 6.4883 15.409 6.07131 15.9323 5.59034C15.9362 5.58672 15.9396 5.58261 15.9434 5.57891C15.9553 5.56758 15.9666 5.55582 15.9778 5.54381C15.9859 5.53516 15.9939 5.52659 16.0016 5.51761C16.0125 5.50492 16.0227 5.49157 16.0329 5.47822C16.0396 5.4694 16.0465 5.46075 16.0528 5.45168C16.0632 5.43664 16.0728 5.42111 16.0822 5.4054C16.0872 5.39734 16.0923 5.38953 16.0969 5.3813C16.1072 5.36299 16.1163 5.34426 16.1252 5.3252C16.128 5.3189 16.1313 5.31294 16.1341 5.30655C16.1436 5.28446 16.152 5.26187 16.1598 5.23878C16.161 5.235 16.1626 5.23139 16.1639 5.22761C16.172 5.20224 16.1787 5.17638 16.1845 5.15001C16.1849 5.14824 16.1855 5.14665 16.1858 5.1448C16.1913 5.11809 16.1956 5.0908 16.1987 5.06317C16.1988 5.06182 16.1992 5.06048 16.1992 5.05913C16.2022 5.03041 16.2039 5.00135 16.2039 4.97179V1.27077C16.2038 0.570086 15.6066 0 14.8727 0H9.73009C8.99624 0 8.39911 0.570086 8.39911 1.27077V4.97204C8.39911 5.00161 8.4007 5.03066 8.40373 5.05939C8.40381 5.06073 8.40415 5.06207 8.40431 5.06342C8.40734 5.09105 8.41154 5.11826 8.41716 5.14505C8.4175 5.14681 8.41809 5.14849 8.41851 5.15026C8.42413 5.17655 8.43094 5.2025 8.43908 5.22786C8.44034 5.23164 8.44185 5.23525 8.4432 5.23903C8.45093 5.26204 8.45924 5.28472 8.4689 5.3068C8.47167 5.3131 8.47495 5.31907 8.4778 5.32545C8.48662 5.34451 8.49577 5.36324 8.50602 5.38155C8.51064 5.38978 8.51576 5.39759 8.52072 5.40565C8.53012 5.42136 8.53978 5.4369 8.5502 5.45193C8.55658 5.461 8.56346 5.46965 8.5701 5.47847C8.58026 5.49182 8.59042 5.50509 8.60134 5.51786C8.60907 5.52676 8.61713 5.53541 8.62519 5.54406C8.63636 5.55607 8.6477 5.56783 8.65954 5.57917C8.66341 5.58286 8.66677 5.58698 8.67071 5.59059C9.19385 6.07157 9.13641 6.48838 8.68516 7.92493C8.25583 9.29203 7.6797 11.1263 8.26742 13.5975L4.68229 15.9011C4.68011 15.9025 4.67826 15.9042 4.67616 15.9056C4.64971 15.923 4.62418 15.9417 4.59991 15.9618C4.59428 15.9665 4.58916 15.9717 4.5837 15.9766C4.56547 15.9926 4.54775 16.0092 4.53104 16.0267C4.52306 16.035 4.5155 16.0435 4.50794 16.0521C4.49392 16.0679 4.48056 16.0844 4.46771 16.1012C4.46133 16.1098 4.4547 16.1181 4.44848 16.1268C4.43211 16.1504 4.41665 16.1746 4.40254 16.1998C4.40137 16.2019 4.39994 16.2039 4.39876 16.206C4.38356 16.2338 4.37038 16.2628 4.35845 16.2923C4.35518 16.3004 4.35257 16.3085 4.34955 16.3167C4.3414 16.3385 4.33418 16.3606 4.32788 16.3832C4.32503 16.3935 4.32242 16.4038 4.3199 16.4142C4.31478 16.4357 4.31083 16.4574 4.30747 16.4793C4.30579 16.49 4.30386 16.5006 4.30252 16.5113C4.29941 16.5388 4.29765 16.5667 4.29723 16.5949C4.29714 16.5993 4.29639 16.6035 4.29639 16.6077V42.1602C4.29639 42.6239 4.67247 43 5.13623 43H19.4664C19.9302 43 20.3062 42.6239 20.3062 42.1602V16.6074C20.3063 16.3216 20.161 16.0554 19.9206 15.9008ZM10.0789 1.67969H14.5241V4.1322H10.0789V1.67969ZM18.6266 41.3203H5.97616V38.2089H18.6266V41.3203ZM18.6266 33.2329H15.1803C14.7165 33.2329 14.3404 33.609 14.3404 34.0727C14.3404 34.5365 14.7165 34.9126 15.1803 34.9126H18.6266V36.5293H5.97616V21.2244H18.6266V33.2329ZM18.6267 19.5448H5.97616V17.4473H11.1023C11.5661 17.4473 11.9422 17.0712 11.9422 16.6074C11.9422 16.1436 11.5661 15.7676 11.1023 15.7676H7.99699L9.69297 14.6779C10.0094 14.4745 10.1521 14.0857 10.0422 13.726C9.34292 11.4362 9.84481 9.8381 10.2877 8.42808C10.5616 7.55607 10.8408 6.66534 10.6703 5.81197H13.9326C13.7621 6.66534 14.0413 7.55616 14.3152 8.42817C14.7581 9.83818 15.26 11.4362 14.5607 13.726C14.4509 14.0857 14.5936 14.4745 14.9099 14.6779L18.6267 17.066V19.5448Z" fill="#812B2B"/>
<path d="M13.5351 15.7678H13.5151C13.0514 15.7678 12.6753 16.1439 12.6753 16.6077C12.6753 17.0715 13.0514 17.4475 13.5151 17.4475H13.5351C13.999 17.4475 14.375 17.0715 14.375 16.6077C14.375 16.1439 13.999 15.7678 13.5351 15.7678Z" fill="#812B2B"/>
<path d="M38.4748 27.6435C38.3161 27.475 38.095 27.3794 37.8634 27.3794H23.6655C23.4339 27.3794 23.2127 27.475 23.0541 27.6435C22.8953 27.8121 22.8133 28.0387 22.8272 28.2698L23.6671 42.2108C23.6938 42.6541 24.0612 43.0001 24.5054 43.0001H37.0234C37.4676 43.0001 37.835 42.6541 37.8618 42.2108L38.2812 35.2503C38.2813 35.2477 38.2814 35.2449 38.2816 35.2423L38.7017 28.2698C38.7156 28.0387 38.6336 27.8121 38.4748 27.6435ZM36.2326 41.3204H25.2962L25.0109 36.5853C25.756 36.6215 26.6708 36.6469 27.7111 36.65L28.3584 39.0662C28.416 39.2814 28.5568 39.4648 28.7497 39.5762C28.8784 39.6506 29.0235 39.6887 29.1696 39.6887C29.2424 39.6887 29.3154 39.6793 29.387 39.6601L34.3551 38.3289C34.5703 38.2713 34.7537 38.1306 34.865 37.9377C34.9764 37.7447 35.0065 37.5156 34.9489 37.3003L34.6928 36.3446C35.3022 36.2891 35.9203 36.2245 36.544 36.1503L36.2326 41.3204ZM28.9981 34.9636L28.8672 34.475L32.2126 33.5787L32.5468 34.8259C31.2861 34.9048 30.0898 34.9472 28.9981 34.9636ZM32.9902 36.4797L33.1092 36.9239L29.7636 37.8203L29.4459 36.6346C30.5464 36.612 31.7396 36.5638 32.9902 36.4797ZM34.2518 34.6987L33.6177 32.3327C33.4976 31.8847 33.037 31.619 32.5891 31.7389L27.6214 33.0699C27.4063 33.1275 27.2228 33.2683 27.1114 33.4612C27.0001 33.6541 26.9698 33.8833 27.0275 34.0985L27.2606 34.9683C26.3524 34.9595 25.5566 34.9331 24.9093 34.8984L24.5575 29.0592H36.9714L36.6468 34.4462C35.8375 34.5468 35.0361 34.6304 34.2518 34.6987Z" fill="#812B2B"/>
<path d="M12.7675 33.2332H12.7476C12.2838 33.2332 11.9077 33.6092 11.9077 34.073C11.9077 34.5368 12.2838 34.9128 12.7476 34.9128H12.7675C13.2313 34.9128 13.6074 34.5368 13.6074 34.073C13.6074 33.6092 13.2313 33.2332 12.7675 33.2332Z" fill="#812B2B"/>
</g>
<defs>
<clipPath id="clip0">
<rect width="43" height="43" fill="white"/>
</clipPath>
</defs>
</svg>
