<svg
	width="46"
	height="46"
	viewBox="0 0 46 46"
	fill="none"
	xmlns="http://www.w3.org/2000/svg"
>
	<path
		fill-rule="evenodd"
		clip-rule="evenodd"
		d="M 8 0 H 1.6 H 0 V 1.6 V 8 H 1.6 V 1.6 H 8 V 0 Z M 36.9 1.6 V 0 H 44.1 H 45.8 V 1.6 V 8 H 44.1 V 1.6 H 36.9 Z M 36.9 44.1 H 44.1 V 36.9 H 45.8 V 44.1 V 45.8 H 44.1 H 36.9 V 44.1 Z M 1.6 36.9 V 44.1 H 8 V 45.8 H 1.6 H 0 V 44.1 V 36.9 H 1.6 Z"
		fill="black"
		fill-opacity="0.5"
	/>
	<path
		d="m 28.65,25.013721 h 0.2 v 0.2 10.100001 0.3 h -0.2 -11.2 -0.3 v -0.3 -10.100001 -0.2 h 0.3 z m -9.9,9.000001 h 8.5 v -7.400001 h -8.5 z"
		fill="#812b2b"
		stroke="#812b2b"
		stroke-width="0.5"
	/>
	<path
		d="m 20.8,27.968357 h -0.3 v 0.3 1.1 0.3 h 0.3 4.5 0.2 v -0.3 -1.1 -0.3 h -0.2 z"
		fill="#812b2b"
		stroke="#812b2b"
		stroke-width="0.5"
	/>
	<path
		d="m 20.8,30.309457 h -0.3 v 0.3 1.1 0.3 h 0.3 4.5 0.2 v -0.3 -1.1 -0.3 h -0.2 z"
		fill="#812b2b"
		stroke="#812b2b"
		stroke-width="0.5"
	/>
	<path
		d="m 25.916208,18.894612 c 0.364525,-0.684234 0.729053,-1.710581 0.729053,-2.394813 0,-1.368464 -0.729053,-2.394812 -1.458104,-3.421159 0,-1.368465 0,-2.052696 0,-2.394812 0,-0.342116 0,-0.342116 0,-0.342116 0,-0.3421147 0,-1.0263487 0,-2.7369294 h -4.374314 c 0,1.7105807 0,2.3948147 0,2.7369294 0,0.342116 0,0.342116 0,0.342116 0,0.342116 0,1.026347 0,2.394812 -0.729052,1.026347 -1.458103,2.052695 -1.458103,3.421159 0,0.684232 0.364527,1.710579 0.729051,2.394813 -1.822628,1.026346 -2.916205,2.736926 -2.916205,4.789622 v 13.684635 c 0,0.684232 0.364526,1.026348 1.093577,1.026348 h 9.477675 c 0.729052,0 1.093577,-0.342116 1.093577,-1.026348 V 23.684234 c 0,-2.052696 -1.093577,-3.763276 -2.916207,-4.789622 z M 21.906423,8.6311316 h 2.187154 V 9.6574813 H 21.906423 Z M 27.738838,37.368869 H 18.261163 V 23.684234 c 0,-2.736928 2.187155,-3.763276 3.280733,-4.447507 -0.364526,-1.026349 -0.729053,-1.710581 -0.729053,-2.736928 0,-1.368464 0.364527,-2.052695 1.09358,-3.079044 0,-1.026347 0,-1.368465 0,-2.394811 h 2.187154 c 0,1.026346 0,1.368464 0,2.394811 0.729052,1.026349 1.09358,1.71058 1.09358,3.079044 0,1.026347 -0.364528,1.710579 -0.729053,2.736928 1.093578,0.684231 3.280734,1.710579 3.280734,4.447507 z"
		fill="#812b2b"
		stroke="#812b2b"
		stroke-width="0.5"
	/>
</svg>