<svg width="20" height="20" viewBox="0 0 20 20" fill="none" xmlns="http://www.w3.org/2000/svg">
<path d="M19.883 8.36952C20.1227 7.74151 19.9904 7.00292 19.4851 6.49768L13.5019 0.514441C12.8165 -0.17095 11.7013 -0.170872 11.0159 0.514441L4.28934 7.24108H1.75781C0.788555 7.24108 0 8.02964 0 8.99889V18.2417C0 19.211 0.788555 19.9996 1.75781 19.9996H18.2422C19.2114 19.9996 20 19.211 20 18.2417V8.99889C20 8.77714 19.9583 8.56507 19.883 8.36952ZM18.6104 7.28018C18.4916 7.25475 18.3685 7.24108 18.2422 7.24108H16.9725L17.7719 6.44171L18.6104 7.28018ZM16.9433 5.61307L15.3153 7.24108H13.6579L16.1146 4.7844L16.9433 5.61307ZM11.8446 1.34307C11.9589 1.22886 12.1089 1.17171 12.2589 1.17171C12.409 1.17171 12.559 1.22886 12.6732 1.34307L15.286 3.95581L12.0007 7.24112H5.94656L11.8446 1.34307ZM18.8281 18.2417C18.8281 18.5648 18.5653 18.8277 18.2422 18.8277H1.75781C1.43473 18.8277 1.17188 18.5648 1.17188 18.2417V8.99889C1.17188 8.67581 1.43473 8.41296 1.75781 8.41296H18.2422C18.5653 8.41296 18.8281 8.67581 18.8281 8.99889V18.2417Z" fill="black"/>
<path d="M2.30469 15.8811H5.03527V17.053H2.30469V15.8811Z" fill="black"/>
<path d="M6.52344 15.8813H9.25398V17.0532H6.52344V15.8813Z" fill="black"/>
<path d="M10.7461 15.8813H13.4766V17.0532H10.7461V15.8813Z" fill="black"/>
<path d="M14.9648 15.8811H17.6954V17.053H14.9648V15.8811Z" fill="black"/>
<path d="M5.32293 9.97443H3.32031C2.78184 9.97443 2.34375 10.4125 2.34375 10.951V12.5135C2.34375 13.052 2.78184 13.4901 3.32031 13.4901H5.32293C5.86141 13.4901 6.29949 13.052 6.29949 12.5135V10.951C6.29949 10.4125 5.86141 9.97443 5.32293 9.97443ZM5.12762 12.3182H3.51562V11.1463H5.12762V12.3182Z" fill="black"/>
</svg>
