<svg width="28" height="28" viewBox="0 0 28 28" fill="none" xmlns="http://www.w3.org/2000/svg">
<circle cx="14" cy="14" r="14" fill="#812B2B"/>
<path d="M11.4375 19.7188C11.5625 19.9062 11.75 19.9688 12 19.9688C12.2188 19.9688 12.4062 19.9062 12.5625 19.7188L21.7812 10.5312C21.9062 10.4062 22 10.2188 22 9.96875C22 9.75 21.9062 9.5625 21.7812 9.40625L20.625 8.28125C20.4688 8.125 20.2812 8.03125 20.0625 8.03125C19.8438 8.03125 19.6562 8.125 19.5 8.28125L12 15.7812L8.5 12.2812C8.3125 12.125 8.125 12.0312 7.90625 12.0312C7.6875 12.0312 7.5 12.125 7.375 12.2812L6.21875 13.4062C6.0625 13.5625 6 13.75 6 13.9688C6 14.2188 6.0625 14.4062 6.21875 14.5312L11.4375 19.7188Z" fill="white"/>
</svg>
