<svg width="18" height="22" viewBox="0 0 18 22" fill="" xmlns="http://www.w3.org/2000/svg">
<path d="M11.5273 9.05667L11.4389 8.96828C11.7925 8.61475 12.3657 8.61475 12.7192 8.96828C13.0727 9.3218 13.0728 9.89502 12.7192 10.2484C12.7192 10.2484 12.7192 10.2484 12.7192 10.2484L9.6551 13.3125C9.30159 13.6661 8.72836 13.6661 8.37496 13.3125L11.5273 9.05667ZM11.5273 9.05667L11.4389 8.96829L8.37498 12.0324C8.37497 12.0324 8.37497 12.0324 8.37496 12.0324C8.02141 12.3858 8.02145 12.959 8.37494 13.3125L11.5273 9.05667ZM15.6868 7.28082C16.9214 8.80264 17.5926 10.6862 17.5926 12.6724C17.5926 17.4137 13.7556 21.25 9.01511 21.25C4.27382 21.25 0.4375 17.4131 0.4375 12.6724C0.4375 8.20379 3.83117 4.58909 8.10977 4.14241V2.81052H7.48053C6.98055 2.81052 6.57535 2.40509 6.57535 1.90518C6.57535 1.40524 6.98059 1 7.48053 1H10.5495C11.0495 1 11.4547 1.40524 11.4547 1.90518C11.4547 2.40509 11.0495 2.81052 10.5495 2.81052H9.92029V4.1424C11.5704 4.31438 13.1182 4.95554 14.4067 6.00068L15.1106 5.29671C15.4642 4.94319 16.0372 4.94318 16.3908 5.29669L15.6868 7.28082ZM15.6868 7.28082L16.3908 6.57685C16.7443 6.22334 16.7443 5.65011 16.3908 5.29671L15.6868 7.28082ZM9.01495 19.4395C5.28379 19.4395 2.24786 16.4037 2.24786 12.6724C2.24786 8.94123 5.28378 5.90546 9.01495 5.90546C12.7463 5.90546 15.782 8.94123 15.782 12.6724C15.782 16.4037 12.7463 19.4395 9.01495 19.4395Z" fill="none" stroke="black" stroke-width="0.25"/>
</svg>

