<svg width="24" height="24" viewBox="0 0 24 24" fill="none" xmlns="http://www.w3.org/2000/svg">
<path fill-rule="evenodd" clip-rule="evenodd" d="M12 24C18.6274 24 24 18.6274 24 12C24 5.37258 18.6274 0 12 0C5.37258 0 0 5.37258 0 12C0 18.6274 5.37258 24 12 24Z" fill="#EDEEF2"/>
<path d="M12.7048 12L16.4187 15.7139C16.4729 15.7952 16.5 15.8765 16.5 15.9578C16.5 16.0663 16.4729 16.1205 16.4187 16.1747L16.1747 16.4187C16.1205 16.4729 16.0392 16.5 15.9578 16.5C15.8494 16.5 15.7681 16.4729 15.7139 16.4187L12 12.6777L8.28614 16.4187C8.20482 16.4729 8.12349 16.5 8.04217 16.5C7.93373 16.5 7.87952 16.4729 7.8253 16.4187L7.58133 16.1747C7.52711 16.1205 7.5 16.0663 7.5 15.9578C7.5 15.8765 7.52711 15.7952 7.58133 15.7139L11.3223 12L7.58133 8.28614C7.52711 8.23193 7.5 8.1506 7.5 8.04217C7.5 7.96084 7.52711 7.87952 7.58133 7.8253L7.8253 7.58133C7.87952 7.52711 7.93373 7.5 8.04217 7.5C8.12349 7.5 8.20482 7.52711 8.28614 7.58133L12 11.2952L15.7139 7.58133C15.7681 7.52711 15.8494 7.5 15.9578 7.5C16.0392 7.5 16.1205 7.52711 16.1747 7.58133L16.4187 7.8253C16.4729 7.87952 16.5 7.96084 16.5 8.04217C16.5 8.1506 16.4729 8.23193 16.4187 8.28614L12.7048 12Z" fill="#202121" stroke="black" stroke-width="0.5"/>
</svg>

