<svg width="20" height="20" viewBox="0 0 20 20" fill="none" xmlns="http://www.w3.org/2000/svg">
<path d="M9.99998 0.833496C8.18699 0.833496 6.41471 1.37111 4.90726 2.37836C3.39981 3.3856 2.22489 4.81724 1.53109 6.49223C0.837285 8.16722 0.655754 10.0103 1.00945 11.7885C1.36315 13.5667 2.23619 15.2 3.51817 16.482C4.80015 17.764 6.4335 18.637 8.21166 18.9907C9.98981 19.3444 11.8329 19.1629 13.5079 18.4691C15.1829 17.7753 16.6145 16.6003 17.6218 15.0929C18.629 13.5854 19.1667 11.8132 19.1667 10.0002C19.1638 7.56989 18.1971 5.23998 16.4786 3.52152C14.7602 1.80306 12.4303 0.836363 9.99998 0.833496ZM13.535 12.3577C13.6146 12.4345 13.6781 12.5265 13.7217 12.6282C13.7654 12.7298 13.7884 12.8392 13.7894 12.9498C13.7903 13.0605 13.7692 13.1702 13.7273 13.2726C13.6854 13.375 13.6236 13.4681 13.5453 13.5463C13.4671 13.6246 13.374 13.6864 13.2716 13.7283C13.1692 13.7702 13.0595 13.7913 12.9488 13.7904C12.8382 13.7894 12.7288 13.7664 12.6271 13.7227C12.5255 13.6791 12.4335 13.6156 12.3567 13.536L9.99998 11.1785L7.64332 13.536C7.48615 13.6878 7.27565 13.7718 7.05715 13.7699C6.83865 13.768 6.62964 13.6804 6.47513 13.5258C6.32063 13.3713 6.23299 13.1623 6.23109 12.9438C6.22919 12.7253 6.31319 12.5148 6.46498 12.3577L8.82165 10.0002L6.46498 7.64266C6.38539 7.56579 6.32191 7.47384 6.27823 7.37217C6.23456 7.2705 6.21157 7.16115 6.21061 7.0505C6.20965 6.93985 6.23073 6.83011 6.27263 6.7277C6.31453 6.62529 6.37641 6.53224 6.45465 6.454C6.5329 6.37576 6.62594 6.31388 6.72836 6.27198C6.83077 6.23008 6.9405 6.20899 7.05115 6.20995C7.1618 6.21092 7.27115 6.2339 7.37282 6.27758C7.47449 6.32125 7.56644 6.38474 7.64332 6.46433L9.99998 8.82183L12.3567 6.46433C12.4335 6.38474 12.5255 6.32125 12.6271 6.27758C12.7288 6.2339 12.8382 6.21092 12.9488 6.20995C13.0595 6.20899 13.1692 6.23008 13.2716 6.27198C13.374 6.31388 13.4671 6.37576 13.5453 6.454C13.6236 6.53224 13.6854 6.62529 13.7273 6.7277C13.7692 6.83011 13.7903 6.93985 13.7894 7.0505C13.7884 7.16115 13.7654 7.2705 13.7217 7.37217C13.6781 7.47384 13.6146 7.56579 13.535 7.64266L11.1783 10.0002L13.535 12.3577Z" fill="#CC0E00"/>
</svg>
