<svg width="60" height="60" viewBox="0 0 72 60" fill="none" xmlns="http://www.w3.org/2000/svg">
  <path transform="translate(12,0)" d="M59.5881 34.711L46.5271 21.65C45.978 21.101 45.0875 21.101 44.5383 21.65C43.9891 22.1992 43.9891 23.0896 44.5383 23.6389L54.9068 34.0073H30.1814C28.1303 34.0073 26.4618 32.3387 26.4618 30.2876V5.5624L36.4719 15.5724C37.021 16.1214 37.9115 16.1214 38.4607 15.5724C39.0099 15.0232 39.0099 14.1328 38.4607 13.5835L25.7581 0.880988C25.209 0.331988 24.3185 0.331988 23.7694 0.880988L1.35094 23.2998C0.801802 23.849 0.801802 24.7394 1.35094 25.2887L35.1809 59.1186C35.4446 59.3823 35.8024 59.5305 36.1753 59.5305C36.5482 59.5305 36.906 59.3823 37.1697 59.1186L59.5882 36.6999C59.8519 36.4361 60.0001 36.0784 60.0001 35.7055C60 35.3326 59.8518 34.9748 59.5881 34.711ZM23.6496 4.97866V22.8881H5.74013L23.6496 4.97866ZM34.7691 54.7291L5.74013 25.7005H23.6496V30.2876C23.6496 33.8895 26.5799 36.8198 30.1817 36.8198H34.7691V54.7291ZM37.5814 54.7293V36.8198H55.4907L37.5814 54.7293Z" fill="white"/>
  <path transform="translate(51.8,17.0)" d="M2.67724 0.800099C2.1302 0.248849 1.2399 0.245194 0.688511 0.792084C0.137259 1.33911 0.133603 2.22955 0.680636 2.78094L0.689073 2.78966C0.962871 3.06571 1.32175 3.20324 1.68104 3.20324C2.03936 3.20324 2.39824 3.06627 2.67358 2.79318C3.22497 2.24614 3.22427 1.35149 2.67724 0.800099Z" fill="white"/>
  <path transform="translate(0,13.0)" d="M5.9085 0.953613H1.40808C0.631409 0.953613 0.00183105 1.58333 0.00183105 2.35986C0.00183105 3.13639 0.631409 3.76611 1.40808 3.76611H5.9085C6.68517 3.76611 7.31475 3.13639 7.31475 2.35986C7.31475 1.58333 6.68517 0.953613 5.9085 0.953613Z" fill="white"/>
  <path transform="translate(9,13.0)" d="M6.82176 0.953613H1.5022C0.725525 0.953613 0.0959473 1.58333 0.0959473 2.35986C0.0959473 3.13639 0.725525 3.76611 1.5022 3.76611H6.82176C7.59843 3.76611 8.22801 3.13639 8.22801 2.35986C8.22801 1.58333 7.59843 0.953613 6.82176 0.953613Z" fill="white"/>
  <path transform="translate(0,30.0)" d="M9.65123 0.71875H1.40625C0.629578 0.71875 0 1.34847 0 2.125C0 2.90153 0.629578 3.53125 1.40625 3.53125H9.65123C10.4279 3.53125 11.0575 2.90167 11.0575 2.125C11.0575 1.34847 10.4279 0.71875 9.65123 0.71875Z" fill="white"/>
  <path transform="translate(12,30.0)" d="M1.84397 0.71875H1.82288C1.0462 0.71875 0.416626 1.34847 0.416626 2.125C0.416626 2.90153 1.0462 3.53125 1.82288 3.53125H1.84397C2.62064 3.53125 3.25022 2.90153 3.25022 2.125C3.25022 1.34847 2.62064 0.71875 1.84397 0.71875Z" fill="white"/>
  <path transform="translate(7,37.5)" d="M9.88341 0.452637H2.00855C1.23187 0.452637 0.602295 1.08236 0.602295 1.85889C0.602295 2.63542 1.23187 3.26514 2.00855 3.26514H9.88341C10.6601 3.26514 11.2897 2.63542 11.2897 1.85889C11.2897 1.08236 10.6599 0.452637 9.88341 0.452637Z" fill="white"/>
  <path transform="translate(0,45.0)" d="M22.0323 0.452637H2.20435C1.42767 0.452637 0.798096 1.08236 0.798096 1.85889C0.798096 2.63542 1.42767 3.26514 2.20435 3.26514H22.0323C22.809 3.26514 23.4386 2.63542 23.4386 1.85889C23.4386 1.08236 22.809 0.452637 22.0323 0.452637Z" fill="white"/>
</svg>
