<svg width="16" height="14" viewBox="0 0 16 14" fill="none" xmlns="http://www.w3.org/2000/svg">
<path fill-rule="evenodd" clip-rule="evenodd" d="M2.00781 0C0.88553 0 0 0.968498 0 2.125V3.7925L6.54553 8.98573C6.90275 9.26913 7.325 9.41325 7.75 9.41325C8.17499 9.41325 8.59724 9.26917 8.95448 8.98572L15.5 3.7925V2.125C15.5 0.968498 14.6145 0 13.4922 0H2.00781ZM1.67188 2.125C1.67188 1.903 1.83775 1.75 2.00781 1.75H13.4922C13.6622 1.75 13.8281 1.903 13.8281 2.125V2.92285L7.94433 7.59103C7.82615 7.6848 7.67383 7.68477 7.5557 7.59103L1.67188 2.92285V2.125ZM1.67188 6.03856L0 4.71212V11.375C0 12.5315 0.88553 13.5 2.00781 13.5H13.4922C14.6145 13.5 15.5 12.5315 15.5 11.375V4.71212L13.8281 6.03856V11.375C13.8281 11.597 13.6622 11.75 13.4922 11.75H2.00781C1.83775 11.75 1.67188 11.597 1.67188 11.375V6.03856Z" fill="#656667"/>
</svg>
