<svg width="19" height="18" viewBox="0 0 19 18" fill="none" xmlns="http://www.w3.org/2000/svg">
<path fill-rule="evenodd" clip-rule="evenodd" d="M3.95833 1C3.95833 0.447715 4.40605 0 4.95833 0H7.70833C8.26062 0 8.70833 0.447715 8.70833 1V1.58333H18.2083C18.6456 1.58333 19 1.93777 19 2.375C19 2.81223 18.6456 3.16667 18.2083 3.16667H8.70833V3.75C8.70833 4.30228 8.26062 4.75 7.70833 4.75H4.95833C4.40605 4.75 3.95833 4.30228 3.95833 3.75V3.16667H0.791667C0.354441 3.16667 0 2.81223 0 2.375C0 1.93777 0.354441 1.58333 0.791666 1.58333H3.95833V1ZM19 8.70833C19 9.14556 18.6456 9.5 18.2083 9.5H15.8333V10.0833C15.8333 10.6356 15.3856 11.0833 14.8333 11.0833H12.0833C11.531 11.0833 11.0833 10.6356 11.0833 10.0833V9.5H0.791667C0.354441 9.5 0 9.14556 0 8.70833C0 8.27111 0.354441 7.91667 0.791666 7.91667H11.0833V7.33333C11.0833 6.78105 11.531 6.33333 12.0833 6.33333H14.8333C15.3856 6.33333 15.8333 6.78105 15.8333 7.33333V7.91667H18.2083C18.6456 7.91667 19 8.27111 19 8.70833ZM18.2083 15.8333C18.6456 15.8333 19 15.4789 19 15.0417C19 14.6044 18.6456 14.25 18.2083 14.25H8.70833V13.6667C8.70833 13.1144 8.26062 12.6667 7.70833 12.6667H4.95833C4.40605 12.6667 3.95833 13.1144 3.95833 13.6667V14.25H0.791666C0.354441 14.25 0 14.6044 0 15.0417C0 15.4789 0.354441 15.8333 0.791667 15.8333H3.95833V16.4167C3.95833 16.969 4.40605 17.4167 4.95833 17.4167H7.70833C8.26062 17.4167 8.70833 16.969 8.70833 16.4167V15.8333H18.2083ZM7.125 1.58333H5.54167V3.16667H7.125V1.58333ZM14.25 7.91667H12.6667V9.5H14.25V7.91667ZM5.54171 14.25H7.12504V15.8333H5.54171V14.25Z" fill="black"/>
</svg>
