<svg width="42" height="42" viewBox="0 0 42 42" fill="none" xmlns="http://www.w3.org/2000/svg">
<g clip-path="url(#clip0)">
<path d="M9.66114 14.3017C9.34122 13.9818 8.82114 13.9818 8.5013 14.3017C8.18056 14.6225 8.18056 15.1417 8.5013 15.4616C8.82122 15.7824 9.3413 15.7824 9.66114 15.4616C9.9818 15.1417 9.9818 14.6225 9.66114 14.3017Z" fill="#812B2B"/>
<path d="M20.7703 36.7268C21.1319 36.237 21.3274 35.6467 21.3274 35.0262C21.3274 33.4431 20.0395 32.1552 18.4564 32.1552H4.51156C3.74432 32.1552 3.02335 32.4537 2.48137 32.9959C1.93914 33.538 1.64055 34.2589 1.64055 35.0262C1.64055 35.6618 1.84858 36.2497 2.19959 36.7259C0.893404 37.4126 0 38.7826 0 40.358V41.1783C0 41.6313 0.367337 41.9986 0.820314 41.9986H22.1477C22.6006 41.9986 22.968 41.6313 22.968 41.1783V40.358C22.968 38.7833 22.0755 37.4139 20.7703 36.7268ZM3.64137 34.1558C3.87361 33.9235 4.1827 33.7956 4.51156 33.7956H18.4564C19.1349 33.7956 19.6868 34.3476 19.6868 35.026C19.6868 35.355 19.5588 35.664 19.3265 35.8963C19.0943 36.1286 18.7852 36.2565 18.4563 36.2565H4.51156C3.83308 36.2565 3.28117 35.7045 3.28117 35.0261C3.28117 34.6972 3.40906 34.3881 3.64137 34.1558ZM1.64055 40.358C1.64055 39.0011 2.74452 37.8971 4.10141 37.8971H4.51156H18.4564H18.8666C20.2234 37.8971 21.3274 39.0011 21.3274 40.358H1.64055Z" fill="#812B2B"/>
<path d="M41.2368 34.4634C40.9582 34.0317 40.6258 33.6499 40.2487 33.3287L36.4158 29.9856C36.386 29.9407 36.3514 29.898 36.3117 29.8584C36.2451 29.7919 36.1697 29.74 36.0894 29.7011L33.7715 27.6794L23.0426 18.3204C23.4818 17.8612 23.7236 17.2608 23.7236 16.6224C23.7236 15.9647 23.4676 15.3466 23.0022 14.8813C22.7993 14.6786 22.5686 14.5192 22.3221 14.4025L23.3147 13.4099C23.5921 13.4836 23.8772 13.5214 24.1625 13.5214C25.0026 13.5213 25.8427 13.2015 26.4822 12.562C27.1022 11.9421 27.4437 11.1181 27.4437 10.2417C27.4437 9.3654 27.1022 8.5414 26.4823 7.92149L19.5221 0.961448C18.9022 0.341537 18.0781 0.00012207 17.2015 0.00012207C16.3254 0.00012207 15.5015 0.341537 14.8817 0.961448C14.025 1.81818 13.7429 3.03463 14.0338 4.12909L4.13059 14.0323C3.85693 13.9595 3.5722 13.9211 3.28132 13.9211C2.40457 13.9211 1.58089 14.2623 0.961474 14.8816C-0.317887 16.161 -0.317887 18.2427 0.961474 19.5221L7.92159 26.4823C8.56135 27.122 9.4016 27.4418 10.2418 27.4418C11.0822 27.4418 11.9224 27.122 12.5622 26.4823C13.4189 25.6255 13.7009 24.4091 13.4101 23.3147L14.4006 22.3241C14.5196 22.5726 14.6811 22.802 14.8818 23.0026C15.3466 23.4673 15.9645 23.7234 16.6221 23.7234C17.2599 23.7234 17.86 23.4819 18.3198 23.0432L29.7473 36.1727C29.7788 36.2219 29.8155 36.2688 29.8585 36.3117C29.8732 36.3264 29.8888 36.3398 29.9043 36.3531L33.3095 40.2655C33.3941 40.3654 33.4846 40.4637 33.5785 40.5576C34.5138 41.4925 35.7491 41.9999 37.046 41.9999C37.2746 41.9999 37.5054 41.9841 37.7365 41.9521C39.281 41.7384 40.6159 40.8144 41.3987 39.4167C42.2561 37.8849 42.1923 35.9402 41.2368 34.4634ZM16.0419 2.12154C16.3519 1.81154 16.7638 1.64075 17.2016 1.64075C17.64 1.64075 18.0522 1.81154 18.3621 2.12154L25.3223 9.08166C25.6323 9.39165 25.803 9.8037 25.803 10.2418C25.803 10.68 25.6323 11.092 25.3222 11.402C24.6828 12.0416 23.6422 12.0416 23.0027 11.402L16.0423 4.44155C16.0421 4.44138 16.042 4.4413 16.0419 4.44114C15.4023 3.80162 15.4023 2.76105 16.0419 2.12154ZM11.4021 25.3222C10.7624 25.9619 9.72136 25.962 9.08167 25.3222L2.12156 18.3621C1.4818 17.7224 1.4818 16.6815 2.12156 16.0417C2.43098 15.7322 2.84294 15.5617 3.28132 15.5617C3.71961 15.5617 4.13133 15.7321 4.44067 16.0414L11.402 23.0027C12.0417 23.6421 12.0417 24.6828 11.4021 25.3222ZM14.8558 19.5489L12.5621 21.8426L5.60125 14.8818L14.8817 5.60114L21.8425 12.562L19.5446 14.8599C19.5371 14.867 19.5298 14.8739 19.522 14.8817L14.8841 19.5197C14.8745 19.5291 14.8652 19.5389 14.8558 19.5489ZM17.7848 21.2601C17.7831 21.2618 17.7816 21.2633 17.78 21.265L17.2023 21.8426C17.0473 21.9975 16.8413 22.0828 16.622 22.0828C16.4027 22.0828 16.1967 21.9975 16.0418 21.8425C15.8867 21.6875 15.8013 21.4813 15.8013 21.2618C15.8013 21.0471 15.8832 20.845 16.0319 20.6926L20.6914 16.0332C21.0108 15.7226 21.5271 15.7264 21.8426 16.0417C21.9977 16.1967 22.0831 16.403 22.0831 16.6224C22.0831 16.8417 21.9979 17.0473 21.8426 17.2023L21.2683 17.7766C21.2643 17.7804 21.2604 17.7844 21.2565 17.7883L17.7848 21.2601ZM19.4835 21.8815L21.8809 19.4841L32.0317 28.3381L28.3276 32.0422L19.4835 21.8815ZM29.4072 33.2827L33.2708 29.419L34.5101 30.5L30.4869 34.5233L29.4072 33.2827ZM39.9673 38.6153C39.4379 39.5605 38.5428 40.1844 37.5116 40.3271C36.4828 40.4695 35.4719 40.1306 34.7384 39.3974C34.6753 39.3344 34.6149 39.2687 34.5586 39.2021C34.556 39.199 34.5534 39.1959 34.5507 39.1928L31.5664 35.7638L35.7492 31.5808L39.1741 34.5682C39.1766 34.5705 39.1792 34.5727 39.1819 34.575C39.4383 34.7929 39.6658 35.0547 39.8588 35.3538C40.4791 36.3123 40.5226 37.6232 39.9673 38.6153Z" fill="#812B2B"/>
<path d="M15.4613 8.50136C15.1409 8.18103 14.6217 8.18103 14.3012 8.50136L10.8208 11.9818C10.5005 12.3021 10.5005 12.8215 10.8208 13.1418C10.981 13.302 11.1909 13.3821 11.4009 13.3821C11.6108 13.3821 11.8207 13.3019 11.9809 13.1418L15.4613 9.66136C15.7817 9.34111 15.7817 8.82177 15.4613 8.50136Z" fill="#812B2B"/>
</g>
<defs>
<clipPath id="clip0">
<rect width="42" height="42" fill="white"/>
</clipPath>
</defs>
</svg>
