<svg width="12" height="14" viewBox="0 0 12 14" fill="none" xmlns="http://www.w3.org/2000/svg">
<path fill-rule="evenodd" clip-rule="evenodd" d="M0.852273 0C0.381576 0 0 0.381576 0 0.852274V3.97727V5.68182V7.95455V9.65909V12.7841C0 13.2548 0.381576 13.6364 0.852273 13.6364H0.886364C1.35706 13.6364 1.73864 13.2548 1.73864 12.7841V9.65909H9.85227V12.7841C9.85227 13.2548 10.2338 13.6364 10.7045 13.6364H10.7386C11.2093 13.6364 11.5909 13.2548 11.5909 12.7841V9.65909V7.95455V5.68182V3.97727V0.852273C11.5909 0.381576 11.2093 0 10.7386 0H10.7045C10.2338 0 9.85227 0.381576 9.85227 0.852274V3.97727H1.73864V0.852273C1.73864 0.381576 1.35706 0 0.886364 0H0.852273ZM9.85227 5.68182H1.73864V7.95455H9.85227V5.68182Z" fill="black"/>
</svg>
