<svg width="28" height="28" viewBox="0 0 28 28" fill="none" xmlns="http://www.w3.org/2000/svg">
<path d="M13.9998 1.1665C11.4616 1.1665 8.98045 1.91917 6.87002 3.32931C4.75959 4.73946 3.11471 6.74375 2.14339 9.08873C1.17206 11.4337 0.917922 14.0141 1.4131 16.5035C1.90828 18.9929 3.13053 21.2796 4.92531 23.0744C6.72008 24.8692 9.00676 26.0914 11.4962 26.5866C13.9856 27.0818 16.566 26.8276 18.9109 25.8563C21.2559 24.885 23.2602 23.2401 24.6704 21.1297C26.0805 19.0192 26.8332 16.538 26.8332 13.9998C26.8292 10.5975 25.4758 7.33558 23.0699 4.92973C20.6641 2.52389 17.4022 1.17052 13.9998 1.1665ZM13.9998 24.4998C11.9231 24.4998 9.89307 23.884 8.16635 22.7303C6.43964 21.5765 5.09383 19.9366 4.29911 18.018C3.50439 16.0994 3.29645 13.9882 3.7016 11.9514C4.10674 9.91459 5.10677 8.04367 6.57522 6.57522C8.04367 5.10677 9.91459 4.10674 11.9514 3.70159C13.9882 3.29645 16.0994 3.50438 18.018 4.2991C19.9366 5.09382 21.5765 6.43963 22.7303 8.16635C23.884 9.89307 24.4998 11.9231 24.4998 13.9998C24.4964 16.7836 23.3891 19.4523 21.4207 21.4207C19.4523 23.3891 16.7836 24.4964 13.9998 24.4998Z" fill="white"/>
<path d="M14.0002 7C13.6907 7 13.394 7.12292 13.1752 7.34171C12.9564 7.5605 12.8335 7.85725 12.8335 8.16667V16.3333C12.8335 16.6428 12.9564 16.9395 13.1752 17.1583C13.394 17.3771 13.6907 17.5 14.0002 17.5C14.3096 17.5 14.6063 17.3771 14.8251 17.1583C15.0439 16.9395 15.1668 16.6428 15.1668 16.3333V8.16667C15.1668 7.85725 15.0439 7.5605 14.8251 7.34171C14.6063 7.12292 14.3096 7 14.0002 7Z" fill="white"/>
<path d="M14.0002 20.9998C14.6445 20.9998 15.1668 20.4775 15.1668 19.8332C15.1668 19.1888 14.6445 18.6665 14.0002 18.6665C13.3558 18.6665 12.8335 19.1888 12.8335 19.8332C12.8335 20.4775 13.3558 20.9998 14.0002 20.9998Z" fill="white"/>
</svg>
