<svg width="78" height="78" viewBox="0 0 78 78" fill="none" xmlns="http://www.w3.org/2000/svg">
<path d="M3.9 63.7H10.4V71.5C10.4043 75.0881 13.3119 77.9957 16.9 78H61.1C64.6881 77.9957 67.5957 75.0881 67.6 71.5V63.7H74.1C76.2539 63.7 78 61.9539 78 59.8V46.8C78 44.6461 76.2539 42.9 74.1 42.9H67.6V35.1C67.5957 31.5119 64.6881 28.6043 61.1 28.6V22.1C61.1 9.89451 51.2055 0 39 0C26.7945 0 16.9 9.89451 16.9 22.1V28.6C13.3119 28.6043 10.4043 31.5119 10.4 35.1V42.9H3.9C1.74609 42.9 0 44.6461 0 46.8V59.8C0 61.9539 1.74609 63.7 3.9 63.7ZM65 71.5C65 73.6539 63.2539 75.4 61.1 75.4H16.9C14.7461 75.4 13 73.6539 13 71.5V63.7H65V71.5ZM19.5 22.1C19.5 11.3304 28.2304 2.6 39 2.6C49.7696 2.6 58.5 11.3304 58.5 22.1V28.6H53.3V22.1C53.3 14.2023 46.8977 7.8 39 7.8C31.1023 7.8 24.7 14.2023 24.7 22.1V28.6H19.5V22.1ZM27.3 28.6V22.1C27.3 15.6383 32.5383 10.4 39 10.4C45.4617 10.4 50.7 15.6383 50.7 22.1V28.6H27.3ZM13 35.1C13 32.9461 14.7461 31.2 16.9 31.2H61.1C63.2539 31.2 65 32.9461 65 35.1V42.9H13V35.1ZM2.6 46.8C2.6 46.082 3.18203 45.5 3.9 45.5H74.1C74.818 45.5 75.4 46.082 75.4 46.8V59.8C75.4 60.518 74.818 61.1 74.1 61.1H3.9C3.18203 61.1 2.6 60.518 2.6 59.8V46.8Z" fill="white"/>
<path d="M5.41841 56.6216C5.60973 56.9085 5.9072 57.1076 6.24536 57.1752C6.58352 57.2427 6.93466 57.1731 7.22151 56.9817L9.10001 55.7285V57.2001C9.10001 57.9181 9.68204 58.5001 10.4 58.5001C11.118 58.5001 11.7 57.9181 11.7 57.2001V55.7285L13.5785 56.9817C13.9649 57.2395 14.4595 57.2715 14.8759 57.0657C15.2924 56.86 15.5674 56.4477 15.5974 55.9841C15.6275 55.5206 15.4079 55.0763 15.0215 54.8185L12.74 53.3001L15.0176 51.7817C15.404 51.5239 15.6236 51.0796 15.5935 50.6161C15.5635 50.1525 15.2885 49.7402 14.872 49.5345C14.4556 49.3287 13.961 49.3607 13.5746 49.6185L11.7 50.8717V49.4001C11.7 48.6821 11.118 48.1001 10.4 48.1001C9.68204 48.1001 9.10001 48.6821 9.10001 49.4001V50.8717L7.22151 49.6185C6.62415 49.22 5.81688 49.3812 5.41841 49.9786C5.01993 50.5759 5.18116 51.3832 5.77851 51.7817L8.06001 53.3001L5.77851 54.8185C5.49161 55.0098 5.29249 55.3073 5.22496 55.6455C5.15742 55.9836 5.22701 56.3348 5.41841 56.6216Z" fill="white"/>
<path d="M19.7183 56.6216C19.9097 56.9085 20.2071 57.1076 20.5453 57.1752C20.8835 57.2427 21.2346 57.1731 21.5214 56.9817L23.3999 55.7285V57.2001C23.3999 57.9181 23.982 58.5001 24.6999 58.5001C25.4179 58.5001 25.9999 57.9181 25.9999 57.2001V55.7285L27.8784 56.9817C28.2649 57.2395 28.7594 57.2715 29.1759 57.0657C29.5923 56.86 29.8674 56.4477 29.8974 55.9841C29.9274 55.5206 29.7079 55.0763 29.3214 54.8185L27.0399 53.3001L29.3175 51.7817C29.704 51.5239 29.9235 51.0796 29.8935 50.6161C29.8635 50.1525 29.5884 49.7402 29.172 49.5345C28.7555 49.3287 28.261 49.3607 27.8745 49.6185L25.9999 50.8717V49.4001C25.9999 48.6821 25.4179 48.1001 24.6999 48.1001C23.982 48.1001 23.3999 48.6821 23.3999 49.4001V50.8717L21.5214 49.6185C20.9241 49.22 20.1168 49.3812 19.7183 49.9786C19.3199 50.5759 19.4811 51.3832 20.0784 51.7817L22.3599 53.3001L20.0823 54.8185C19.7948 55.0092 19.5949 55.3064 19.5266 55.6446C19.4583 55.9828 19.5273 56.3343 19.7183 56.6216Z" fill="white"/>
<path d="M48.3183 56.6216C48.5096 56.9085 48.8071 57.1076 49.1453 57.1752C49.4834 57.2427 49.8346 57.1731 50.1214 56.9817L51.9999 55.7285V57.2001C51.9999 57.9181 52.5819 58.5001 53.2999 58.5001C54.0179 58.5001 54.5999 57.9181 54.5999 57.2001V55.7285L56.4784 56.9817C56.8648 57.2395 57.3594 57.2715 57.7759 57.0657C58.1923 56.86 58.4673 56.4477 58.4974 55.9841C58.5274 55.5206 58.3078 55.0763 57.9214 54.8185L55.6399 53.3001L57.9175 51.7817C58.3039 51.5239 58.5235 51.0796 58.4935 50.6161C58.4634 50.1525 58.1884 49.7402 57.772 49.5345C57.3555 49.3287 56.8609 49.3607 56.4745 49.6185L54.5999 50.8717V49.4001C54.5999 48.6821 54.0179 48.1001 53.2999 48.1001C52.5819 48.1001 51.9999 48.6821 51.9999 49.4001V50.8717L50.1214 49.6185C49.5241 49.22 48.7168 49.3812 48.3183 49.9786C47.9198 50.5759 48.0811 51.3832 48.6784 51.7817L50.9599 53.3001L48.6823 54.8185C48.3948 55.0092 48.1949 55.3064 48.1266 55.6446C48.0583 55.9828 48.1273 56.3343 48.3183 56.6216Z" fill="white"/>
<path d="M34.0184 56.6216C34.2097 56.9085 34.5072 57.1076 34.8453 57.1752C35.1835 57.2427 35.5346 57.1731 35.8215 56.9817L37.7 55.7285V57.2001C37.7 57.9181 38.282 58.5001 39 58.5001C39.718 58.5001 40.3 57.9181 40.3 57.2001V55.7285L42.1785 56.9817C42.5649 57.2395 43.0595 57.2715 43.4759 57.0657C43.8924 56.86 44.1674 56.4477 44.1974 55.9841C44.2275 55.5206 44.0079 55.0763 43.6215 54.8185L41.34 53.3001L43.6176 51.7817C44.004 51.5239 44.2236 51.0796 44.1935 50.6161C44.1635 50.1525 43.8885 49.7402 43.472 49.5345C43.0556 49.3287 42.561 49.3607 42.1746 49.6185L40.3 50.8717V49.4001C40.3 48.6821 39.718 48.1001 39 48.1001C38.282 48.1001 37.7 48.6821 37.7 49.4001V50.8717L35.8215 49.6185C35.2241 49.22 34.4169 49.3812 34.0184 49.9786C33.6199 50.5759 33.7811 51.3832 34.3785 51.7817L36.66 53.3001L34.3824 54.8185C34.0949 55.0092 33.8949 55.3064 33.8267 55.6446C33.7584 55.9828 33.8274 56.3343 34.0184 56.6216Z" fill="white"/>
<path d="M20.8001 33.8003H16.9001C16.1821 33.8003 15.6001 34.3823 15.6001 35.1003V39.0003C15.6001 39.7183 16.1821 40.3003 16.9001 40.3003C17.6181 40.3003 18.2001 39.7183 18.2001 39.0003V36.4003H20.8001C21.5181 36.4003 22.1001 35.8183 22.1001 35.1003C22.1001 34.3823 21.5181 33.8003 20.8001 33.8003Z" fill="white"/>
<path d="M63.6999 58.4999H71.4999C72.2179 58.4999 72.7999 57.9179 72.7999 57.1999C72.7999 56.4819 72.2179 55.8999 71.4999 55.8999H63.6999C62.9819 55.8999 62.3999 56.4819 62.3999 57.1999C62.3999 57.9179 62.9819 58.4999 63.6999 58.4999Z" fill="white"/>
</svg>
