<svg width="20" height="20" viewBox="0 0 20 20" fill="none" xmlns="http://www.w3.org/2000/svg">
<path d="M17.46 7.88736L10.8327 1.25998C10.1475 0.574819 9.03263 0.57478 8.34743 1.25998C7.7315 1.87587 7.67845 2.81521 8.13329 3.48595L8.12407 3.53208C7.64626 5.92134 6.48302 8.09493 4.76002 9.8179L1.72022 12.8577C1.03342 13.5445 1.03331 14.6561 1.72022 15.3429L3.37701 16.9997C4.06377 17.6865 5.17541 17.6866 5.86224 16.9997L6.27646 16.5855L9.17591 19.485C9.8627 20.1718 10.9743 20.1718 11.6611 19.485C12.3463 18.7998 12.3463 17.6849 11.6611 16.9998L10.4185 15.7572L10.8327 15.3429C11.5195 14.6562 11.5196 13.5446 10.8327 12.8577L10.5512 12.5762C11.9359 11.6067 13.5086 10.9318 15.188 10.5959L15.2347 10.5865C15.9203 11.0495 16.8575 10.975 17.46 10.3725H17.4601C18.1452 9.68739 18.1451 8.57255 17.46 7.88736ZM5.03385 16.1713C4.80494 16.4002 4.43432 16.4002 4.20541 16.1713L2.54862 14.5145C2.31967 14.2855 2.31967 13.915 2.54862 13.6861L5.44802 10.7867L7.93325 13.2719C7.64958 13.5556 5.32451 15.8806 5.03385 16.1713ZM10.8327 17.8281C11.061 18.0565 11.061 18.4281 10.8327 18.6565C10.6043 18.8849 10.2326 18.8849 10.0043 18.6565L7.10482 15.7571L7.93325 14.9287L10.8327 17.8281ZM8.76165 14.1003C8.93774 13.9242 9.20134 13.6545 9.61735 13.2992L10.0043 13.6861C10.2332 13.915 10.2332 14.2855 10.0043 14.5145L9.59005 14.9287L8.76165 14.1003ZM8.78653 12.4684L6.25146 9.93333C7.61001 8.36462 8.5829 6.51286 9.10341 4.50115L14.2187 9.61646C12.207 10.1369 10.3553 11.1098 8.78653 12.4684ZM16.6315 9.54407C16.4026 9.77298 16.0321 9.77298 15.8031 9.54407L9.17583 2.91677C8.94689 2.68779 8.94689 2.31732 9.17583 2.08837C9.40477 1.85943 9.77532 1.85943 10.0043 2.08837L16.6315 8.71564C16.8599 8.94403 16.8599 9.31564 16.6315 9.54407Z" fill="#812B2B"/>
<path d="M5.86218 12.8576C5.63347 12.6288 5.26253 12.6288 5.03378 12.8576L4.20538 13.686C3.97663 13.9147 3.97663 14.2856 4.20538 14.5144C4.43409 14.7431 4.80507 14.7431 5.03378 14.5144L5.86218 13.686C6.09093 13.4572 6.09093 13.0863 5.86218 12.8576Z" fill="#812B2B"/>
<path d="M13.523 0C13.1995 0 12.9373 0.262265 12.9373 0.58578V1.75734C12.9373 2.08086 13.1995 2.34312 13.523 2.34312C13.8466 2.34312 14.1088 2.08086 14.1088 1.75734V0.58578C14.1088 0.262265 13.8466 0 13.523 0Z" fill="#812B2B"/>
<path d="M18.2092 4.68604H17.0377C16.7142 4.68604 16.4519 4.9483 16.4519 5.27182C16.4519 5.59533 16.7142 5.85759 17.0377 5.85759H18.2092C18.5328 5.85759 18.795 5.59533 18.795 5.27182C18.795 4.9483 18.5327 4.68604 18.2092 4.68604Z" fill="#812B2B"/>
<path d="M17.4519 1.34295C17.2232 1.1142 16.8523 1.1142 16.6235 1.34295L15.452 2.51451C15.2232 2.74326 15.2232 3.11416 15.452 3.34291C15.6807 3.57166 16.0516 3.57169 16.2804 3.34291L17.4519 2.17135C17.6807 1.9426 17.6807 1.57174 17.4519 1.34295Z" fill="#812B2B"/>
</svg>
