<svg width="40" height="40" viewBox="0 0 40 40" fill="none" xmlns="http://www.w3.org/2000/svg">
<g clip-path="url(#clip0_2102:1885)">
<path d="M19.9997 40L19.1579 39.1303C19.0159 38.9835 15.6396 35.4816 12.2089 30.7697C7.51877 24.328 5.14069 18.9749 5.14069 14.8591C5.14061 6.66581 11.8064 0 19.9997 0C28.193 0 34.8587 6.66581 34.8587 14.8591C34.8587 18.9749 32.4807 24.328 27.7906 30.7697C24.3599 35.4816 20.9835 38.9834 20.8415 39.1303L19.9997 40ZM19.9997 2.34302C13.0984 2.34302 7.48363 7.95775 7.48363 14.8591C7.48363 22.292 17.0665 33.3773 19.9997 36.5957C22.9329 33.3773 32.5157 22.292 32.5157 14.8591C32.5158 7.95775 26.9012 2.34302 19.9997 2.34302V2.34302Z" fill="black"/>
<path d="M19.9741 14.9436C17.6791 14.9436 15.8121 13.0765 15.8121 10.7816C15.8121 8.4867 17.6791 6.61963 19.9741 6.61963C22.269 6.61963 24.136 8.4867 24.136 10.7816C24.136 13.0766 22.2689 14.9436 19.9741 14.9436ZM19.9741 8.96272C18.9711 8.96272 18.1551 9.77872 18.1551 10.7817C18.1551 11.7847 18.9711 12.6006 19.9741 12.6006C20.977 12.6006 21.793 11.7847 21.793 10.7817C21.7929 9.77872 20.9769 8.96272 19.9741 8.96272Z" fill="black"/>
<path d="M27.1275 23.7225H12.8227V21.1057C12.8227 17.713 15.5828 14.9529 18.9755 14.9529H20.9747C24.3674 14.9529 27.1275 17.713 27.1275 21.1057V23.7225ZM15.1657 21.3795H24.7845V21.1057C24.7845 19.005 23.0754 17.2959 20.9747 17.2959H18.9755C16.8748 17.2959 15.1657 19.005 15.1657 21.1057V21.3795Z" fill="black"/>
</g>
<defs>
<clipPath id="clip0_2102:1885">
<rect width="40" height="40" fill="white"/>
</clipPath>
</defs>
</svg>
