<svg width="14" height="4" viewBox="0 0 14 4" fill="none" xmlns="http://www.w3.org/2000/svg">
<path d="M8.5 2C8.5 1.59375 8.34375 1.25 8.0625 0.9375C7.75 0.65625 7.40625 0.5 7 0.5C6.5625 0.5 6.21875 0.65625 5.9375 0.9375C5.625 1.25 5.5 1.59375 5.5 2C5.5 2.4375 5.625 2.78125 5.9375 3.0625C6.21875 3.375 6.5625 3.5 7 3.5C7.40625 3.5 7.75 3.375 8.0625 3.0625C8.34375 2.78125 8.5 2.4375 8.5 2ZM12.25 0.5C12.6562 0.5 13 0.65625 13.3125 0.9375C13.5938 1.25 13.75 1.59375 13.75 2C13.75 2.4375 13.5938 2.78125 13.3125 3.0625C13 3.375 12.6562 3.5 12.25 3.5C11.8125 3.5 11.4688 3.375 11.1875 3.0625C10.875 2.78125 10.75 2.4375 10.75 2C10.75 1.59375 10.875 1.25 11.1875 0.9375C11.4688 0.65625 11.8125 0.5 12.25 0.5ZM1.75 0.5C2.15625 0.5 2.5 0.65625 2.8125 0.9375C3.09375 1.25 3.25 1.59375 3.25 2C3.25 2.4375 3.09375 2.78125 2.8125 3.0625C2.5 3.375 2.15625 3.5 1.75 3.5C1.3125 3.5 0.96875 3.375 0.6875 3.0625C0.375 2.78125 0.25 2.4375 0.25 2C0.25 1.59375 0.375 1.25 0.6875 0.9375C0.96875 0.65625 1.3125 0.5 1.75 0.5Z" fill="#202121"/>
</svg>
