<svg width="40" height="40" viewBox="0 0 40 40" fill="none" xmlns="http://www.w3.org/2000/svg">
<g clip-path="url(#clip0_2102:1882)">
<path d="M1.17188 37.6551H8.18115L22.1448 40.0602C22.4435 40.1114 22.7597 40.0477 23.0255 39.8578C23.0295 39.8551 23.0334 39.8527 23.0374 39.8496L39.5218 27.7402C40.0375 27.3615 40.1541 26.6388 39.7833 26.117C37.9614 23.5529 34.3341 22.8797 31.6974 24.6167L27.5192 27.3719C26.8787 26.5021 25.8481 25.9366 24.6875 25.9366H20.8844C20.2374 25.9366 19.9735 25.4691 19.5599 25.16C16.4703 22.4411 11.8109 22.4411 8.72131 25.16L7.83905 25.9366H1.17188C0.524597 25.9366 0 26.4612 0 27.1085V36.4832C0 37.1305 0.524597 37.6551 1.17188 37.6551ZM2.34375 28.2804H8.28125C8.56629 28.2804 8.84155 28.1763 9.05548 27.988L10.2698 26.9196C12.4765 24.9775 15.8048 24.9775 18.0115 26.9196C18.3215 27.1286 19.1785 28.2804 20.8844 28.2804H24.6875C25.3336 28.2804 25.8594 28.8059 25.8594 29.4523C25.8594 30.0983 25.3336 30.6238 24.6875 30.6238H15.3125C14.6652 30.6238 14.1406 31.1487 14.1406 31.7957C14.1406 32.443 14.6652 32.9676 15.3125 32.9676H24.6875C26.5302 32.9676 28.045 31.5424 28.1906 29.7367L32.9874 26.5735C34.2453 25.745 35.8746 25.8216 37.0465 26.6504L22.0514 37.6658C7.66724 35.1945 8.47199 35.3113 8.28125 35.3113H2.34375V28.2804Z" fill="black"/>
<path d="M30.547 10.7029C30.547 4.84412 25.8156 0.0778809 20.0001 0.0778809C14.1847 0.0778809 9.45325 4.84412 9.45325 10.7029C9.45325 16.5183 14.1847 21.2498 20.0001 21.2498C25.8156 21.2498 30.547 16.5183 30.547 10.7029ZM28.2033 10.7029C28.2033 14.8283 25.142 18.2514 21.172 18.8218V16.6996C22.5294 16.2122 23.5032 14.9128 23.5032 13.39C23.5032 11.4515 21.9261 9.87434 19.9876 9.87434C19.3413 9.87434 18.8157 9.34852 18.8157 8.70246C18.8157 8.0561 19.3413 7.53058 19.9876 7.53058C20.6337 7.53058 21.1595 8.0561 21.1595 8.70246C21.1595 9.34943 21.6841 9.87434 22.3314 9.87434C22.9783 9.87434 23.5032 9.34943 23.5032 8.70246C23.5032 7.17933 22.5294 5.87989 21.172 5.39252V2.50647C25.142 3.08234 28.2033 6.53815 28.2033 10.7029ZM11.797 10.7029C11.797 6.53815 14.8582 3.08234 18.8283 2.50647V5.38398C17.4577 5.86432 16.472 7.16987 16.472 8.70246C16.472 10.6409 18.0491 12.2178 19.9876 12.2178C20.6337 12.2178 21.1595 12.7436 21.1595 13.3897C21.1595 14.036 20.6337 14.5615 19.9876 14.5615C19.3413 14.5615 18.8157 14.036 18.8157 13.3897C18.8157 12.7427 18.2908 12.2178 17.6439 12.2178C16.9966 12.2178 16.472 12.7427 16.472 13.3897C16.472 14.9223 17.4577 16.2278 18.8283 16.7081V18.8218C14.8582 18.2514 11.797 14.8283 11.797 10.7029Z" fill="black"/>
</g>
<defs>
<clipPath id="clip0_2102:1882">
<rect width="40" height="40" fill="white"/>
</clipPath>
</defs>
</svg>