<svg width="39" height="39" viewBox="0 0 39 39" fill="none" xmlns="http://www.w3.org/2000/svg">
<path d="M38.2383 11.8828H8.53125V5.78906C8.53125 5.36833 8.19026 5.02734 7.76953 5.02734H4.18945C1.8793 5.02734 0 6.90665 0 9.2168V28.6406C0 31.5807 2.39198 33.9727 5.33203 33.9727H38.2383C38.659 33.9727 39 33.6317 39 33.2109V12.6445C39 12.2238 38.659 11.8828 38.2383 11.8828ZM4.18945 6.55078H7.00781V11.8828C7.00781 11.8828 4.19035 11.8828 4.18945 11.8828C2.74725 11.8828 1.52344 10.6575 1.52344 9.2168C1.52344 7.74662 2.71928 6.55078 4.18945 6.55078ZM37.4766 32.4492H35.9531C35.9531 32.0294 35.6112 31.6875 35.1914 31.6875C34.7716 31.6875 34.4297 32.0294 34.4297 32.4492H5.33203C3.23195 32.4492 1.52344 30.7407 1.52344 28.6406V12.4461C1.52403 12.4467 1.52463 12.4473 1.52522 12.4476C1.5285 12.4502 1.53207 12.4529 1.53534 12.4556C2.27623 13.0662 3.22987 13.4062 4.18945 13.4062H37.4766V32.4492Z" fill="black"/>
<path d="M35.1914 28.6406C34.7716 28.6406 34.4297 28.9819 34.4297 29.4023C34.4297 29.8222 34.7716 30.1641 35.1914 30.1641C35.6112 30.1641 35.9531 29.8222 35.9531 29.4023C35.9531 28.9819 35.6112 28.6406 35.1914 28.6406Z" fill="black"/>
<path d="M35.1914 17.9766C34.7716 17.9766 34.4297 18.3184 34.4297 18.7383V19.5C34.4297 19.9198 34.7716 20.2617 35.1914 20.2617C35.6112 20.2617 35.9531 19.9198 35.9531 19.5V18.7383C35.9531 18.3184 35.6112 17.9766 35.1914 17.9766Z" fill="black"/>
<path d="M34.4297 15.6914C34.4297 16.1112 34.7716 16.4531 35.1914 16.4531C35.6112 16.4531 35.9531 16.1112 35.9531 15.6914C35.9531 15.2716 35.6112 14.9297 35.1914 14.9297C34.7716 14.9297 34.4297 15.2716 34.4297 15.6914Z" fill="black"/>
<path d="M35.1914 21.7852C34.7716 21.7852 34.4297 22.127 34.4297 22.5469C34.4297 22.9667 34.7716 23.3086 35.1914 23.3086C35.6112 23.3086 35.9531 22.9667 35.9531 22.5469C35.9531 22.127 35.6112 21.7852 35.1914 21.7852Z" fill="black"/>
<path d="M35.1914 24.832C34.7716 24.832 34.4297 25.1739 34.4297 25.5938V26.3555C34.4297 26.7753 34.7716 27.1172 35.1914 27.1172C35.6112 27.1172 35.9531 26.7753 35.9531 26.3555V25.5938C35.9531 25.1739 35.6112 24.832 35.1914 24.832Z" fill="black"/>
<path d="M32.9062 27.1172C32.9062 27.5379 32.5653 27.8789 32.1445 27.8789C31.7238 27.8789 31.3828 27.5379 31.3828 27.1172C31.3828 26.6965 31.7238 26.3555 32.1445 26.3555C32.5653 26.3555 32.9062 26.6965 32.9062 27.1172Z" fill="black"/>
<path d="M32.9062 24.0703C32.9062 24.491 32.5653 24.832 32.1445 24.832C31.7238 24.832 31.3828 24.491 31.3828 24.0703C31.3828 23.6496 31.7238 23.3086 32.1445 23.3086C32.5653 23.3086 32.9062 23.6496 32.9062 24.0703Z" fill="black"/>
<path d="M32.9062 30.1641C32.9062 30.5848 32.5653 30.9258 32.1445 30.9258C31.7238 30.9258 31.3828 30.5848 31.3828 30.1641C31.3828 29.7433 31.7238 29.4023 32.1445 29.4023C32.5653 29.4023 32.9062 29.7433 32.9062 30.1641Z" fill="black"/>
<path d="M12.1875 29.4023H6.09375C5.67391 29.4023 5.33203 29.7442 5.33203 30.1641C5.33203 30.5845 5.67391 30.9258 6.09375 30.9258H12.1875C12.6073 30.9258 12.9492 30.5845 12.9492 30.1641C12.9492 29.7442 12.6073 29.4023 12.1875 29.4023Z" fill="black"/>
<path d="M15.2344 29.4023C14.8145 29.4023 14.4727 29.7442 14.4727 30.1641C14.4727 30.5845 14.8145 30.9258 15.2344 30.9258C15.6542 30.9258 15.9961 30.5845 15.9961 30.1641C15.9961 29.7442 15.6542 29.4023 15.2344 29.4023Z" fill="black"/>
<path d="M19.8047 29.4023H18.2812C17.8614 29.4023 17.5195 29.7442 17.5195 30.1641C17.5195 30.5845 17.8614 30.9258 18.2812 30.9258H19.8047C20.2245 30.9258 20.5664 30.5845 20.5664 30.1641C20.5664 29.7442 20.2245 29.4023 19.8047 29.4023Z" fill="black"/>
<path d="M27.5742 29.4023H25.8984C25.478 29.4023 25.1367 29.7442 25.1367 30.1641C25.1367 30.5845 25.478 30.9258 25.8984 30.9258H27.5742C27.9941 30.9258 28.3359 30.5845 28.3359 30.1641C28.3359 29.7442 27.9941 29.4023 27.5742 29.4023Z" fill="black"/>
<path d="M21.3281 26.3555H18.2812C17.8605 26.3555 17.5195 26.6965 17.5195 27.1172C17.5195 27.5379 17.8605 27.8789 18.2812 27.8789H21.3281C21.7489 27.8789 22.0898 27.5379 22.0898 27.1172C22.0898 26.6965 21.7489 26.3555 21.3281 26.3555Z" fill="black"/>
<path d="M15.2344 26.3555H12.1875C11.7668 26.3555 11.4258 26.6965 11.4258 27.1172C11.4258 27.5379 11.7668 27.8789 12.1875 27.8789H15.2344C15.6551 27.8789 15.9961 27.5379 15.9961 27.1172C15.9961 26.6965 15.6551 26.3555 15.2344 26.3555Z" fill="black"/>
<path d="M28.1836 27.1172C28.1836 26.6965 27.8426 26.3555 27.4219 26.3555H24.375C23.9543 26.3555 23.6133 26.6965 23.6133 27.1172C23.6133 27.5379 23.9543 27.8789 24.375 27.8789H27.4219C27.8426 27.8789 28.1836 27.5379 28.1836 27.1172Z" fill="black"/>
<path d="M6.09375 26.3555C5.67302 26.3555 5.33203 26.6965 5.33203 27.1172C5.33203 27.5379 5.67302 27.8789 6.09375 27.8789H9.14062C9.56136 27.8789 9.90234 27.5379 9.90234 27.1172C9.90234 26.6965 9.56136 26.3555 9.14062 26.3555H6.09375Z" fill="black"/>
<path d="M27.4219 23.3086C27.0014 23.3086 26.6602 23.6505 26.6602 24.0703C26.6602 24.4902 27.0014 24.832 27.4219 24.832C27.8417 24.832 28.1836 24.4902 28.1836 24.0703C28.1836 23.6505 27.8417 23.3086 27.4219 23.3086Z" fill="black"/>
<path d="M15.2344 23.3086C14.8145 23.3086 14.4727 23.6505 14.4727 24.0703C14.4727 24.4902 14.8145 24.832 15.2344 24.832C15.6542 24.832 15.9961 24.4902 15.9961 24.0703C15.9961 23.6505 15.6542 23.3086 15.2344 23.3086Z" fill="black"/>
<path d="M12.9492 24.0703C12.9492 23.6505 12.6073 23.3086 12.1875 23.3086H6.09375C5.67391 23.3086 5.33203 23.6505 5.33203 24.0703C5.33203 24.4902 5.67391 24.832 6.09375 24.832H12.1875C12.6073 24.832 12.9492 24.4902 12.9492 24.0703Z" fill="black"/>
<path d="M18.2812 23.3086C17.8614 23.3086 17.5195 23.6505 17.5195 24.0703C17.5195 24.4902 17.8614 24.832 18.2812 24.832H24.375C24.7948 24.832 25.1367 24.4902 25.1367 24.0703C25.1367 23.6505 24.7948 23.3086 24.375 23.3086H18.2812Z" fill="black"/>
<path d="M7.50288 20.9854H11.3115C11.623 20.9854 11.903 20.7958 12.0187 20.5066L13.5422 16.698C13.6359 16.4632 13.6073 16.1972 13.4657 15.9881C13.3241 15.7789 13.0878 15.6533 12.8349 15.6533H5.97945C5.72683 15.6533 5.49028 15.7786 5.34865 15.9881C5.20702 16.1972 5.17845 16.4632 5.27218 16.698L6.79562 20.5066C6.91136 20.7958 7.19135 20.9854 7.50288 20.9854ZM11.7099 17.1768L10.7958 19.4619H8.01853L7.10447 17.1768H11.7099Z" fill="black"/>
<path d="M15.1964 20.9854H19.7667C20.0413 20.9854 20.2948 20.8375 20.4299 20.5979C20.565 20.3587 20.5608 20.0653 20.4189 19.8303L18.121 16.0217C17.9832 15.7929 17.7356 15.6533 17.4687 15.6533C17.4681 15.6533 17.4675 15.6533 17.4669 15.6533C17.1995 15.6539 16.9519 15.795 16.8147 16.0247L14.5421 19.8333C14.4016 20.0686 14.3986 20.3614 14.534 20.5997C14.6694 20.8381 14.9223 20.9854 15.1964 20.9854ZM17.4726 17.8956L18.4176 19.4619H16.538L17.4726 17.8956Z" fill="black"/>
<path d="M23.499 20.9854H27.3076C27.7283 20.9854 28.0693 20.6444 28.0693 20.2236V16.415C28.0693 15.9943 27.7283 15.6533 27.3076 15.6533H23.499C23.0783 15.6533 22.7373 15.9943 22.7373 16.415V20.2236C22.7373 20.6444 23.0783 20.9854 23.499 20.9854ZM24.2607 17.1768H26.5459V19.4619H24.2607V17.1768Z" fill="black"/>
</svg>
