<svg width="22" height="22" viewBox="0 0 22 22" fill="none" xmlns="http://www.w3.org/2000/svg"><path d="M 14 19.6 Z" stroke="red" stroke-width="0.2" /><path d="M 14 19.6 C 11.5 19.3 8.7 17.8 6.5 15.5 C 4.2 13.3 2.7 10.5 2.5 8.4 L 2.5 8.4 C 2.4 8 2.4 7.6 2.5 7.2 C 2.6 6.8 2.8 6.4 3.1 6.1 L 4 5.2 C 4.3 5 4.4 5 4.4 5 L 4.4 5 C 4.5 5 4.6 5 4.7 5 C 4.7 5.1 4.8 5.1 4.9 5.2 C 4.9 5.2 4.9 5.2 4.9 5.2 L 6.7 7.1 C 6.8 7.2 6.9 7.3 6.9 7.5 C 6.9 7.6 6.8 7.7 6.7 7.9 C 6.7 7.9 6.7 7.9 6.7 7.9 L 5.4 9.2 C 5.3 9.3 5.2 9.5 5.2 9.6 C 5.2 9.8 5.2 10 5.3 10.1 C 6.1 11.5 7.1 12.7 8.2 13.8 C 9.3 15 10.5 15.9 11.9 16.7 C 12.1 16.8 12.1 16.8 12.4 16.8 C 12.7 16.7 12.7 16.7 12.8 16.6 L 12.8 16.6 L 14.2 15.3 C 14.2 15.3 14.5 15.1 14.9 15.2 L 15 15.3 L 16.8 17.2 C 17 17.4 17 17.4 17 17.5 C 17 17.6 17 17.7 16.9 17.8 L 16.8 17.9 C 15.9 18.8 15.6 19.1 15.2 19.3 C 14.8 19.5 14.5 19.6 14 19.6 Z" stroke="black" stroke-width="0.2" /><path d="M 18.5 17.3 C 18.3 18.6 18.1 18.8 17.9 19 C 16.6 20.3 16.1 20.6 15.6 20.8 C 15.1 21 14.6 21.1 14 21.1 C 13.8 21.1 13.6 21.1 13.5 21.1 L 13.5 21.1 L 13.5 21.1 C 10.9 20.8 7.9 19.2 5.3 16.6 C 2.8 14.1 1.2 11.1 0.9 8.5 C 0.9 7.9 0.9 7.3 1.1 6.6 C 1.3 6 1.6 5.4 2.1 5 C 3.2 3.9 3.4 3.7 3.7 3.6 C 3.9 3.5 4.2 3.5 4.5 3.5 C 5.3 3.6 5.5 3.7 5.7 3.9 L 5.9 4.1 L 7.8 6 C 7.8 6 8 6.1 8.2 6.4 C 8.3 6.6 8.4 6.9 8.4 7.2 C 8.4 7.4 8.4 7.7 8.4 8 C 8.3 8.2 8.2 8.5 8 8.7 L 7.8 8.9 C 6.9 9.8 7.6 10.9 8.4 11.9 L 9.3 12.7 C 9.3 12.7 10.1 13.6 11.1 14.4 L 12.2 15.1 C 13.1 14.2 13.3 14 13.5 13.8 C 13.8 13.7 14 13.6 14.3 13.6 C 14.6 13.6 14.8 13.6 15.1 13.6 C 15.4 13.7 15.6 13.8 15.9 14 C 18.4 16.7 18.5 17 18.5 17.3 Z" stroke="black" stroke-width="0.2" /><path d="M 11 0.9 C 10.8 0.9 10.6 1 10.5 1.1 C 10.3 1.3 10.3 1.5 10.3 1.7 C 10.3 1.9 10.3 2.1 10.5 2.2 C 10.6 2.3 10.8 2.4 11 2.4 H 11 L 21 11.1 L 21.1 11.1 C 21.1 11.1 21.1 11.1 21.1 11.1 C 21.1 9.7 20.9 8.4 20.3 7.2 C 19.8 5.9 19.1 4.8 18.1 3.8 C 17.2 2.9 16.1 2.2 14.9 1.7 C 13.7 1.2 12.3 0.9 11 0.9 Z M 11 0.9 C 11 0.9 11 0.9 11 0.9 V 1 L 11 0.9 C 11 0.9 11 0.9 11 0.9 Z" stroke="black" stroke-width="0.2" /><path d="M 13.6 5.5 C 12.9 5.2 12.2 5.1 11.5 5.2 C 11.5 5.2 11.1 5.3 11 5.4 C 10.9 5.5 10.8 5.7 10.8 5.9 C 10.8 6 10.9 6.2 11 6.3 C 11.1 6.5 11.3 6.5 11.5 6.5 C 12 6.6 12.5 6.7 13 6.9 C 13.4 7.1 13.9 7.4 14.2 7.8 L 16.8 10.6 L 16.9 10.6 C 16.9 10.6 16.9 10.6 16.9 10.6 C 16.9 9.9 16.8 9.2 16.5 8.5 C 16.2 7.8 15.8 7.2 15.3 6.7 C 14.8 6.2 14.2 5.8 13.6 5.5 Z" stroke="black" stroke-width="0.2" /></svg>
