<svg
	width="40"
	height="28"
	viewBox="0 0 40 28"
	fill="none"
	xmlns="http://www.w3.org/2000/svg"
>
	<path
		d="M40 4.70073C37.2775 5.382 35.1832 6.4039 33.7173 7.76643C32.3211 9.06083 31.6928 10.6277 31.8325 12.4672C32.74 13.5572 33.8569 14.4428 35.1832 15.1241C36.5794 15.7372 38.0454 16.2822 39.5812 16.7591C39.9302 17.9854 39.9651 19.2457 39.6859 20.5401C39.4764 21.7664 39.0227 22.9246 38.3246 24.0146C37.6265 25.0365 36.7888 25.9221 35.8115 26.6715C34.904 27.4209 33.9616 27.8637 32.9843 28C31.5183 27.9319 30.0873 27.6594 28.6911 27.1825C27.2949 26.6375 26.0733 25.8881 25.0262 24.9343C23.9791 23.9805 23.1065 22.8564 22.4084 21.562C21.7801 20.1995 21.466 18.6667 21.466 16.9635C21.466 14.9197 21.8848 12.9781 22.7225 11.1387C23.5602 9.23114 24.712 7.52798 26.178 6.0292C27.7138 4.53041 29.5288 3.27007 31.623 2.24818C33.7173 1.15815 36.0209 0.408762 38.534 0L40 4.70073ZM18.534 4.70073C15.8115 5.382 13.7173 6.4039 12.2513 7.76643C10.8551 9.06083 10.2269 10.6277 10.3665 12.4672C11.274 13.5572 12.3909 14.4428 13.7173 15.1241C15.1134 15.7372 16.5794 16.2822 18.1152 16.7591C18.4642 17.9854 18.4991 19.2457 18.2199 20.5401C18.0105 21.7664 17.5567 22.9246 16.8586 24.0146C16.1606 25.0365 15.3229 25.9221 14.3455 26.6715C13.438 27.4209 12.4956 27.8637 11.5183 28C10.0524 27.9319 8.62129 27.6594 7.22513 27.1825C5.82897 26.6375 4.60733 25.8881 3.56021 24.9343C2.51309 23.9805 1.64049 22.8564 0.942409 21.562C0.314136 20.1995 0 18.6667 0 16.9635C0 14.9197 0.418848 12.9781 1.25654 11.1387C2.09424 9.23114 3.24607 7.52798 4.71204 6.0292C6.24782 4.53041 8.06283 3.27007 10.1571 2.24818C12.2513 1.15815 14.555 0.408762 17.0681 0L18.534 4.70073Z"
		fill="white"
	/>
</svg>