<svg width="19" height="22" viewBox="0 0 19 22" fill="none" xmlns="http://www.w3.org/2000/svg">
<path d="M11.847 8.8434L11.9256 8.92185L11.847 8.8434L8.79123 11.9075C8.43863 12.2609 8.43866 12.8339 8.79121 13.1874C9.14382 13.5411 9.71591 13.5411 10.0686 13.1874L13.1245 10.1233C13.1245 10.1233 13.1245 10.1233 13.1246 10.1233C13.4771 9.76993 13.4771 9.19689 13.1246 8.8434C12.7718 8.48971 12.1997 8.48971 11.847 8.8434ZM17.9848 12.5474C17.9848 10.5613 17.3155 8.67765 16.0841 7.15581L16.7863 6.45173C17.1389 6.09824 17.1389 5.52518 16.7863 5.17181C16.4335 4.81814 15.8616 4.81815 15.5089 5.17183L14.8071 5.87548C13.5221 4.83054 11.9786 4.18945 10.3331 4.01743V2.68552H10.9603C11.4595 2.68552 11.8634 2.27978 11.8634 1.78018C11.8634 1.28055 11.4594 0.875 10.9603 0.875H7.89953C7.40042 0.875 6.99643 1.28055 6.99643 1.78018C6.99643 2.27978 7.40039 2.68552 7.89953 2.68552H8.52675V4.01745C4.2593 4.46428 0.875 8.07916 0.875 12.5474C0.875 17.2877 4.7009 21.125 9.43 21.125C14.1583 21.125 17.9848 17.2884 17.9848 12.5474ZM9.42984 19.3145C5.70916 19.3145 2.68119 16.279 2.68119 12.5474C2.68119 8.81592 5.70916 5.78046 9.42984 5.78046C13.1507 5.78046 16.1785 8.81591 16.1785 12.5474C16.1785 16.279 13.1507 19.3145 9.42984 19.3145Z" fill="#812B2B" stroke="#812B2B" stroke-width="0.25"/>
</svg>
