<svg width="129" height="164" viewBox="0 0 129 164" fill="none" xmlns="http://www.w3.org/2000/svg">
<g clip-path="url(#clip0)">
<path d="M128.828 43.7834C128.794 44.0812 128.739 44.3789 128.725 44.6766C128.642 46.5888 128.373 48.4881 127.922 50.3473C127.873 50.5308 127.815 50.7108 127.764 50.8943C126.929 53.9616 123.886 55.1664 121.434 54.7648C119.978 54.4722 118.583 53.9263 117.313 53.1515C116.77 52.8469 116.238 52.5284 115.709 52.2168C115.669 52.2279 115.63 52.2454 115.595 52.2687C112.724 54.948 110.035 57.8186 107.545 60.8613C104.798 64.2679 102.603 68.0033 101.48 72.3031C101.137 73.5875 100.735 74.8476 100.354 76.1112C100.301 76.356 100.227 76.5958 100.134 76.8279C100.03 76.5105 99.9669 76.1814 99.9448 75.8481C99.8744 75.4206 99.8744 74.9843 99.9448 74.5568C100.566 72.1784 101.126 69.7724 102.109 67.5117C103.542 64.2058 105.482 61.1474 107.858 58.4483C108.802 57.3682 109.733 56.2777 110.715 55.2287C111.646 54.2386 112.632 53.3038 113.593 52.3449C113.885 52.0541 114.17 51.7598 114.448 51.4794C108.393 47.0065 103.043 41.8032 97.8155 36.4268C97.7547 36.531 97.7019 36.6398 97.6575 36.7522C96.5949 39.7903 95.6916 42.8827 94.9512 46.0164C94.3555 48.7438 94.0846 51.5331 94.1441 54.3251C94.2025 57.5863 94.3502 60.8405 94.673 64.0844C94.7348 64.7075 94.8482 65.3238 94.9306 65.9435C94.9661 66.1865 94.9845 66.4317 94.9855 66.6774C94.9855 67.0236 94.776 67.1448 94.4669 66.982C94.364 66.9164 94.2788 66.8261 94.2188 66.7192C94.1589 66.6122 94.1262 66.4921 94.1235 66.3693C93.9758 65.4345 93.7801 64.5033 93.6976 63.5616C93.2948 59.6785 93.1285 55.7742 93.1996 51.8706C93.2735 49.5574 93.596 47.2591 94.1613 45.0159C94.9169 41.9443 95.834 38.9155 96.9088 35.9421C96.9807 35.8127 97.0095 35.6636 96.9909 35.5165C96.9724 35.3694 96.9075 35.2322 96.8058 35.1251C95.5183 33.7147 94.4202 32.1398 93.5397 30.441C93.4881 30.3441 93.4194 30.2541 93.3302 30.0949C93.2282 30.2116 93.1331 30.3341 93.0451 30.4618C92.7017 31.033 92.3582 31.5973 92.056 32.1928C90.2323 35.5924 88.5048 39.0406 87.0143 42.6064C86.2175 44.507 85.4344 46.4145 84.6102 48.3082C83.7241 50.3646 82.5255 52.2514 81.3784 54.1624C80.6716 55.3269 79.8673 56.4284 78.9743 57.4547C78.3377 58.2299 77.5617 58.8771 76.687 59.3623C76.5636 59.4096 76.453 59.4855 76.3642 59.5838C76.2241 59.7612 76.0488 59.9071 75.8495 60.012C75.6501 60.117 75.4312 60.1786 75.2068 60.1931C74.9015 60.2817 74.6084 60.4084 74.3344 60.5705C73.4896 60.9825 72.655 61.4221 71.7998 61.8064C71.3844 62.0227 70.9146 62.1094 70.4501 62.0557C70.6149 61.6714 70.9721 61.6437 71.2572 61.5087C72.1158 61.0967 72.9744 60.6709 73.9429 60.1897C73.6888 60.1066 73.5754 60.0616 73.4586 60.0304C72.2806 59.7188 71.0958 59.4246 69.9212 59.0922C69.3714 58.9248 68.7928 58.8759 68.2229 58.9487C67.6531 59.0215 67.1049 59.2143 66.6139 59.5146C66.4868 59.5873 66.3528 59.6461 66.188 59.7292C66.4215 59.3198 66.7373 58.9642 67.1153 58.6852C67.4932 58.4061 67.9249 58.2099 68.3826 58.109C69.3645 57.9179 70.3794 57.9993 71.319 58.3445C72.5004 58.7114 73.7231 58.9884 74.9045 59.3207C75.0662 59.37 75.2377 59.3765 75.4025 59.3395C75.5674 59.3025 75.7199 59.2233 75.8456 59.1095C76.6741 58.3946 77.4133 57.5809 78.047 56.6862C78.5584 56.007 79.0352 55.3022 79.4757 54.5744C80.1832 53.4146 80.8495 52.2272 81.5364 51.0501C82.4568 49.4749 83.0441 47.7509 83.7447 46.0753C85.7837 41.1021 88.1128 36.255 90.72 31.5593C91.4728 30.1622 92.3958 28.8655 93.4675 27.6992C93.9605 27.1788 94.5421 26.752 95.1847 26.439C97.1973 25.4593 99.1652 24.3826 101.284 23.6348C103.338 22.8917 105.47 22.3899 107.638 22.1393C109.666 21.9701 111.707 22.0773 113.707 22.4578C117.09 23.0145 120.326 24.2634 123.213 26.1274C124.388 26.8822 125.535 27.6749 126.706 28.4297C127.263 28.8123 127.663 29.3855 127.832 30.0429C128.202 31.1984 128.423 32.3967 128.492 33.6087C128.605 35.5197 128.66 37.4342 128.746 39.3452C128.746 39.6429 128.808 39.9407 128.842 40.2384L128.828 43.7834ZM93.7388 29.2951C93.9312 29.6413 94.1029 29.9218 94.2678 30.216C95.0851 31.6631 95.827 33.1656 96.9191 34.4327C98.3135 36.0494 99.6838 37.6939 101.167 39.2206C104.193 42.3363 107.439 45.2236 110.684 48.104C112.508 49.7168 114.496 51.1302 116.615 52.3206C117.695 52.9772 118.872 53.4541 120.101 53.7331C122.564 54.2213 125.651 53.0407 126.445 49.8938C126.486 49.7276 126.534 49.5476 126.579 49.3987C127.017 47.5749 127.27 45.7108 127.334 43.8354C127.42 42.1736 127.396 40.5015 127.358 38.8363C127.321 37.0742 127.228 35.3155 127.132 33.5568C127.071 32.2169 126.871 30.8871 126.534 29.5894C126.489 29.3889 126.406 29.1994 126.288 29.0318C126.17 28.8642 126.02 28.7219 125.847 28.6131C124.889 28.0108 123.955 27.3772 123 26.7679C120.146 24.9563 116.974 23.714 113.655 23.1086C109.467 22.3425 105.15 22.757 101.181 24.3065C99.282 24.9988 97.4618 25.9336 95.6072 26.7644C95.4527 26.8336 95.3198 26.9437 95.2225 27.0829C94.7074 27.8169 94.2094 28.5785 93.7388 29.2951Z" fill="black" stroke="black" stroke-miterlimit="10"/>
<path d="M69.2927 157.377C71.8926 158.162 74.6112 158.469 77.319 158.284C79.5231 158.079 81.6264 157.257 83.391 155.91C84.1162 155.336 84.7398 154.643 85.2353 153.86C85.5176 153.347 85.6764 152.774 85.6989 152.188C85.8432 150.775 85.9359 149.356 85.9977 147.937C86.0003 146.685 85.8503 145.437 85.5512 144.222C85.0558 141.964 84.7866 139.662 84.7476 137.35C84.7426 136.173 84.8974 135.002 85.2078 133.867C85.2868 133.583 85.3314 133.289 85.3933 133.005C85.8981 133.286 85.9325 133.351 85.8294 133.919C85.6783 134.736 85.486 135.55 85.3967 136.374C85.2573 137.924 85.3232 139.487 85.5925 141.02C85.8432 142.685 86.1694 144.34 86.4648 145.998C86.6609 147.061 86.7152 148.147 86.6262 149.224C86.5781 149.81 86.5404 150.395 86.4957 150.98C86.4645 151.112 86.4684 151.25 86.507 151.38C86.5455 151.51 86.6175 151.627 86.7155 151.721C87.0899 151.142 87.4917 150.602 87.8111 150.017C88.6113 148.546 88.917 146.936 89.1299 145.292C89.3875 143.332 89.0269 141.445 88.6525 139.548C88.3341 137.912 88.205 136.243 88.2679 134.577C88.2919 133.798 88.3331 133.022 88.3503 132.247C88.4097 130.383 88.9558 128.568 89.9336 126.985C90.262 126.342 90.8096 125.841 91.4756 125.572C91.5785 125.547 91.6829 125.529 91.7881 125.517C91.5477 125.919 91.3588 126.251 91.1562 126.573C90.2061 128.062 89.6678 129.779 89.597 131.548C89.5695 132.382 89.4905 133.216 89.5111 134.047C89.542 135.314 89.6348 136.578 89.7069 137.855C89.7225 137.963 89.749 138.068 89.7859 138.17C89.8751 138.134 89.9613 138.09 90.0435 138.039C93.2998 135.706 96.1393 132.832 98.4406 129.54C100.233 127.023 101.496 124.164 102.153 121.138C102.707 118.438 102.719 115.654 102.188 112.95C101.868 111.295 101.59 109.633 100.982 108.051C100.519 106.871 99.9355 105.742 99.2408 104.683C99.0588 104.399 99.0519 104.406 98.5539 104.257C97.8512 105.251 96.9664 106.101 95.9472 106.76C95.6038 106.708 95.4355 106.452 95.2775 106.13C95.4321 105.94 95.6003 105.742 95.7652 105.541C96.4864 104.645 97.2523 103.779 97.922 102.845C99.1824 101.076 99.7079 99.0364 99.9826 96.8969C100.131 95.215 100.01 93.5199 99.622 91.8771C99.559 91.6769 99.4821 91.4814 99.3919 91.292C99.2614 91.4755 99.179 91.5932 99.1 91.7109C98.5762 92.549 97.8652 93.2519 97.0237 93.7635C96.1823 94.275 95.2338 94.581 94.254 94.6571C93.6343 94.7238 93.0076 94.6664 92.41 94.4882C91.8123 94.3099 91.2555 94.0144 90.7716 93.6185C90.3296 93.2653 89.9076 92.8873 89.5077 92.4864C89.2602 92.2252 88.962 92.0182 88.6318 91.8782C88.3015 91.7383 87.9461 91.6684 87.5878 91.6728C87.1002 91.6728 86.609 91.6728 86.1248 91.6486C85.8073 91.6282 85.4952 91.5557 85.2009 91.434C85.0779 91.3955 84.9655 91.3288 84.8723 91.2392C84.7791 91.1495 84.7078 91.0394 84.6639 90.9173C84.62 90.7953 84.6047 90.6647 84.6192 90.5357C84.6337 90.4067 84.6777 90.2828 84.7476 90.1738C84.9408 89.7837 85.1819 89.4196 85.4654 89.0902C87.2737 87.0499 89.4861 85.4142 91.9599 84.2885C93.2081 83.7135 94.6246 83.6303 95.9307 84.055C97.2368 84.4798 98.338 85.3819 99.0176 86.5838C99.3826 87.1837 99.6202 87.8534 99.7153 88.5506C99.8105 89.2477 99.7612 89.9572 99.5705 90.6342C99.5354 90.7205 99.5251 90.815 99.5409 90.9069C99.5567 90.9987 99.5979 91.0842 99.6598 91.1535C100.148 91.7823 100.452 92.5369 100.536 93.3311C100.809 94.5913 100.925 95.8812 100.879 97.1704C100.711 99.4553 100.288 101.564 98.997 103.644C98.997 103.675 98.997 103.727 99.0348 103.741C99.7216 104.122 100.123 104.78 100.546 105.393C101.944 107.539 102.859 109.967 103.228 112.507C103.495 113.88 103.685 115.267 103.798 116.661C104.002 120.974 102.867 125.243 100.553 128.875C98.0126 133.019 94.5864 136.539 90.5243 139.178L90.0984 139.462C90.0984 140.282 90.1293 141.054 90.1293 141.823C90.1615 144.919 89.6714 147.997 88.68 150.928C88.5143 151.431 88.2943 151.914 88.024 152.368C87.3612 153.407 86.6503 154.445 85.9428 155.484C85.3796 156.248 84.6665 156.888 83.8478 157.364C81.8741 158.573 79.881 159.751 77.8685 160.898C77.3723 161.167 76.8497 161.383 76.3092 161.542C74.7569 162.054 73.2183 162.581 71.635 163.01C65.927 164.218 65.1474 163.962 61.4348 163.19C59.8816 162.818 58.3627 162.313 56.8945 161.681C56.3896 161.48 55.8642 161.366 55.349 161.161C54.6857 160.899 54.0379 160.598 53.4086 160.261C52.2065 159.597 51.0045 158.901 49.8471 158.184C48.9953 157.665 48.1711 157.104 47.3468 156.547C46.7335 156.102 46.1964 155.559 45.7567 154.94C44.8519 153.751 44.0477 152.488 43.3526 151.163C43.1433 150.76 42.9786 150.335 42.8615 149.896C42.4425 148.286 41.9926 146.68 41.6697 145.049C41.3581 143.309 41.4013 141.524 41.7968 139.801C41.8243 139.673 41.8449 139.541 41.8621 139.41C41.8663 139.349 41.8663 139.287 41.8621 139.226C41.5873 139.046 41.2748 138.842 40.9657 138.634C36.4923 135.645 32.8417 131.564 30.3533 126.77C28.5736 123.405 27.7994 119.592 28.1244 115.792C28.3545 113.078 28.8113 110.378 29.8725 107.83C30.3974 106.57 31.0782 105.382 31.8988 104.295C32.2018 103.949 32.5314 103.627 32.8845 103.333C32.857 103.281 32.8124 103.18 32.754 103.087C31.8748 101.569 31.3192 99.8829 31.1227 98.1363C30.8795 96.2868 30.9843 94.4076 31.4318 92.5972C31.4784 92.4177 31.4881 92.2306 31.4604 92.0472C31.4326 91.8639 31.3679 91.6881 31.2703 91.5309C30.4907 90.1703 30.5285 88.7613 31.0677 87.3108C31.1604 87.065 31.2841 86.8296 31.394 86.5838C31.1192 86.2376 30.8273 85.9294 30.5663 85.5867C29.3848 84.0184 29.0757 82.2632 29.3471 80.3245C29.5463 78.8913 30.24 77.7627 31.1261 76.7206C31.3041 76.544 31.4252 76.3174 31.4736 76.0704C31.522 75.8234 31.4954 75.5674 31.3974 75.3358C30.8891 73.771 30.453 72.182 29.9721 70.6068C29.1995 68.2665 28.1208 66.0404 26.7644 63.9875C25.644 62.1664 24.3487 60.4607 22.8972 58.895C21.6677 57.5898 20.5515 56.1704 19.2636 54.931C16.8958 52.6536 14.6533 50.2474 12.5459 47.7232C10.435 45.1748 8.64577 42.3723 7.21914 39.3799C6.24033 37.3547 5.36112 35.2775 4.43726 33.2245C3.65765 31.4936 3.20088 29.6518 2.72006 27.8239C1.79441 24.4464 1.06847 21.0165 0.546073 17.5522C0.242847 15.893 0.139064 14.2029 0.236973 12.5186C0.331754 11.4061 0.481917 10.2992 0.686885 9.202C1.01659 7.43409 1.3875 5.67542 1.79963 3.92597C2.02974 2.93239 2.43157 1.98381 2.52773 0.955611C2.58867 0.687737 2.6821 0.428447 2.80592 0.183594L2.91925 0.200903C2.95134 0.294436 2.96759 0.392742 2.96734 0.491708C2.88047 1.16686 2.74386 1.83456 2.55864 2.48926C1.98817 4.29983 1.55532 6.15156 1.26386 8.0284C1.006 9.27043 0.833871 10.529 0.748702 11.795C0.681417 13.1387 0.764365 14.4858 0.99598 15.8109C1.31195 17.5626 1.56266 19.3248 1.91984 21.0696C2.47334 23.8161 3.17267 26.5308 4.01483 29.2017C4.40635 30.4238 4.90091 31.6251 5.38859 32.8022C5.87628 33.9793 6.41892 35.0802 6.91347 36.2226C8.8198 40.5839 11.4169 44.6038 14.6031 48.1248C16.1452 49.8385 17.7181 51.5176 19.3804 53.117C20.1394 53.8475 20.8538 54.6299 21.5681 55.4088C22.4244 56.332 23.2659 57.2759 24.0924 58.2407C26.6329 61.0994 28.6503 64.3896 30.0511 67.9584C30.8136 69.9698 31.3287 72.0781 31.916 74.1518C32.0007 74.6363 32.0375 75.128 32.0259 75.6197L32.4209 75.2389C33.0253 74.6746 33.6195 74.0895 34.2445 73.546C34.667 73.1998 34.9005 73.2552 35.1856 73.7295C35.236 73.7981 35.2633 73.8812 35.2633 73.9666C35.2633 74.052 35.236 74.1352 35.1856 74.2038C35.0422 74.403 34.8862 74.5927 34.7185 74.7715C33.8152 75.7617 32.9017 76.7414 32.0087 77.7419C31.7539 78.0448 31.5187 78.364 31.3047 78.6974C30.0855 80.4284 29.8863 82.3636 30.3671 84.3889C30.4004 84.6535 30.4948 84.9067 30.6427 85.1279C30.7906 85.3492 30.988 85.5324 31.2188 85.6629C31.4191 85.8077 31.6002 85.9775 31.758 86.1683C31.814 86.0574 31.8783 85.9509 31.9503 85.8498C32.7252 84.8999 33.7881 84.2326 34.9756 83.9505C36.1631 83.6685 37.4097 83.7872 38.5238 84.2885C39.8416 84.8982 41.0813 85.6666 42.2158 86.5768C43.1652 87.2595 44.0381 88.0442 44.8191 88.9171C45.105 89.2392 45.3614 89.5869 45.585 89.9557C46.0246 90.7208 45.7636 91.3405 44.9221 91.5586C44.6663 91.6193 44.4052 91.6541 44.1425 91.6624C43.7476 91.6798 43.3526 91.6624 42.9576 91.6624C42.5723 91.6488 42.1886 91.7195 41.8329 91.8695C41.4772 92.0194 41.1579 92.2453 40.897 92.5314C40.5968 92.8462 40.2767 93.141 39.9388 93.4142C38.2216 94.844 36.3395 94.9755 34.3304 94.1897C33.6673 93.9163 33.0553 93.5311 32.5205 93.0507L32.0637 92.6733C31.5199 95.3361 31.8079 98.1033 32.8879 100.594C33.4824 101.948 34.2857 103.198 35.268 104.299C35.6114 104.7 35.9789 105.081 36.3292 105.479C36.3878 105.544 36.4318 105.622 36.4581 105.706C36.4845 105.79 36.4925 105.878 36.4818 105.966C36.471 106.053 36.4417 106.137 36.3958 106.212C36.3499 106.287 36.2886 106.351 36.2159 106.4C36.0201 106.538 35.8725 106.428 35.7042 106.32C34.923 105.784 34.2281 105.13 33.6435 104.382L33.3001 103.963C33.1373 103.981 32.9821 104.042 32.8496 104.139C32.7171 104.236 32.612 104.366 32.5445 104.517C31.1671 106.653 30.2606 109.063 29.8863 111.583C29.6802 112.853 29.4089 114.124 29.3299 115.391C29.0448 120.196 30.3602 124.565 32.9807 128.563C35.0361 131.684 37.5891 134.441 40.5364 136.723L42.0372 137.887C42.213 137.543 42.3026 137.162 42.2982 136.775C42.4374 134.77 42.4236 132.758 42.257 130.755C42.1384 129.16 41.6157 127.622 40.739 126.289C40.5329 125.943 40.3372 125.628 40.0727 125.188C40.7974 125.403 41.3194 125.676 41.6766 126.227C42.6134 127.63 43.2261 129.227 43.4694 130.9C43.4903 131.015 43.5041 131.13 43.5106 131.247C43.569 133.272 43.7476 135.304 43.5106 137.326C43.3766 138.527 43.1465 139.718 42.9027 140.905C42.6069 142.567 42.5976 144.267 42.8752 145.932C43.0359 147.192 43.4111 148.415 43.9845 149.546C44.328 150.197 44.7435 150.803 45.1419 151.454C45.2377 151.377 45.3111 151.275 45.3546 151.159C45.3981 151.043 45.41 150.918 45.3892 150.796C45.3617 150.398 45.3549 150 45.3068 149.605C45.1235 147.944 45.2258 146.264 45.609 144.637C46.1209 142.382 46.4335 140.086 46.5432 137.776C46.5851 136.582 46.4696 135.387 46.1997 134.224C46.1551 134.04 46.0967 133.86 46.0589 133.673C45.9559 133.189 45.9318 132.981 46.4745 132.707C46.5329 132.974 46.5741 133.241 46.6462 133.5C47.0387 134.966 47.1942 136.485 47.1064 138.001C46.976 140.176 46.6705 142.336 46.1929 144.461C45.8762 145.961 45.7905 147.501 45.9387 149.027C46.0555 150.159 46.1207 151.295 46.2272 152.423C46.3004 153.028 46.5462 153.598 46.9347 154.064C47.9341 155.383 49.2495 156.238 50.7126 156.941C52.8968 157.98 55.1945 158.181 57.5436 158.001C59.1574 157.889 60.7545 157.602 62.3071 157.145C63.1314 156.896 63.9247 156.533 64.7112 156.207C64.8746 156.13 65.0104 156.004 65.1001 155.846C65.1898 155.688 65.2291 155.506 65.2126 155.324C65.2126 154.57 65.2126 153.812 65.2126 153.053C65.2126 151.669 65.2126 150.284 65.2126 148.899C65.2328 147.706 65.0754 146.517 64.7456 145.371C64.5258 144.786 64.4021 143.623 63.6672 143.169C62.757 142.477 57.3341 138.911 56.5098 138.389C55.159 137.53 53.823 136.651 52.5019 135.751C51.497 135.117 50.6225 134.294 49.9261 133.327C48.1573 130.904 49.3594 126.403 52.471 125.323C57.4028 123.357 61.3077 130.215 66.1777 130.215C71.1645 130.215 76.2371 122.82 80.9629 125.503C84.3973 127.452 82.79 132.884 81.2617 134.421C80.0527 135.64 78.6206 136.54 77.1953 137.457C76.1032 138.15 69.6053 142.124 68.465 143.052C67.7335 143.647 67.4622 144.499 67.2183 145.357C66.8234 146.413 66.5761 149.346 66.6414 151.381C66.686 152.839 66.6414 154.694 66.6414 155.321C66.6243 155.597 66.7114 155.869 66.8852 156.083C67.5997 156.663 68.4165 157.102 69.2927 157.377ZM54.0508 158.894C55.0353 159.751 56.1436 160.451 57.3375 160.971C58.9039 161.667 60.5485 162.168 62.235 162.463C64.0484 162.809 65.8686 163.079 67.7301 162.847C67.8194 162.847 67.9396 162.823 68.0254 162.82C68.2452 162.792 68.5028 162.775 68.6264 162.754C70.2784 162.491 71.9132 162.266 73.4861 161.681C74.8853 161.169 76.1978 160.442 77.3773 159.527C77.5054 159.408 77.6259 159.281 77.738 159.146C75.6324 159.314 73.5142 159.197 71.4392 158.8C69.4667 158.442 67.5833 157.696 65.8961 156.605C62.2693 158.627 58.2133 159.143 54.0611 158.894H54.0508Z" fill="black" stroke="black" stroke-miterlimit="10"/>
<path d="M3.37257 0.269531C3.95298 0.383776 4.53684 0.473787 5.11382 0.615727C7.53934 1.21221 9.90796 2.02314 12.1921 3.0391C14.2284 3.865 16.2086 4.82487 18.1199 5.91253C19.0616 6.46417 19.9688 7.07347 20.8366 7.73698C22.7907 9.2464 24.7312 10.7766 26.6304 12.3552C28.73 14.1468 30.6166 16.1775 32.2526 18.4067C35.2302 22.3603 38.1357 26.3693 40.7493 30.5825C41.3847 31.621 41.9685 32.6596 42.5317 33.7432C44.97 38.4006 47.1541 43.1887 49.0743 48.0861C49.7612 49.8552 50.7675 51.465 51.7085 53.1025C52.6459 54.8122 53.7727 56.4091 55.0674 57.8627C55.4108 58.2089 55.7749 58.5551 56.1355 58.8701C56.2324 58.9609 56.3517 59.0238 56.481 59.0524C56.6102 59.081 56.7447 59.0743 56.8704 59.0329C58.0141 58.7317 59.1612 58.4409 60.3048 58.1431C60.6483 58.0497 60.9917 57.925 61.3352 57.8385C63.0524 57.4161 64.4845 57.8385 65.6419 59.1921C65.7827 59.3312 65.8887 59.5021 65.951 59.6906C65.8102 59.6006 65.5355 59.4241 65.4049 59.3237C64.9927 59.0038 64.5151 58.7803 64.0066 58.6696C63.4981 58.5588 62.9716 58.5634 62.4651 58.6832C60.978 58.9948 59.5287 59.4691 58.021 59.8845C58.6014 60.1961 59.199 60.4696 59.7382 60.8261C60.2774 61.1827 60.9711 61.1481 61.3936 61.7643C61.1474 61.7633 60.9022 61.7355 60.662 61.6812C60.0747 61.4805 59.4943 61.2589 58.9448 60.9889C58.3953 60.7188 57.9557 60.4419 57.444 60.1995C57.1005 60.0334 56.7056 59.9399 56.3415 59.7979C56.1344 59.7224 55.9362 59.6237 55.7508 59.5037C55.4898 59.3271 55.2666 59.0882 54.9987 58.929C54.3192 58.5207 53.7045 58.0119 53.175 57.4196C51.7154 55.8202 50.582 53.9922 49.4796 52.1366C48.2684 50.0636 47.2134 47.9019 46.3233 45.6697C44.2627 40.5668 41.996 35.54 39.2072 30.7833C37.8884 28.5364 36.4048 26.3831 34.9108 24.2471C33.1249 21.6921 31.3562 19.1234 29.3779 16.7104C27.477 14.3637 25.3126 12.247 22.9281 10.4027C21.8669 9.58913 20.8125 8.76172 19.7753 7.917C18.1213 6.57069 16.3092 5.43471 14.3799 4.53467C12.0788 3.46146 9.79149 2.35363 7.34619 1.65085C6.47728 1.40505 5.5912 1.23196 4.71886 1.00347C4.22157 0.916265 3.75124 0.713586 3.34509 0.411472L3.37257 0.269531Z" fill="black" stroke="black" stroke-miterlimit="10"/>
<path d="M6.27124 7.11762C7.16375 6.59095 8.18035 6.31593 9.21453 6.32137C10.9315 6.31815 12.6246 6.72759 14.1532 7.51574C15.7016 8.29108 17.1987 9.16647 18.6351 10.1364C20.1063 11.1608 21.4256 12.3905 22.5538 13.7888C25.5817 17.5133 28.2552 21.5169 30.5388 25.7464C32.9306 30.1754 34.8685 34.8385 36.3224 39.6635C37.0504 41.9736 37.658 44.3206 38.1426 46.6948C38.4777 48.3862 38.6628 50.1043 38.6955 51.8288C38.7492 55.8483 38.5566 59.8672 38.1186 63.8626C38.0293 64.6346 37.8747 65.3963 37.7408 66.1614C37.7301 66.2851 37.6847 66.4032 37.6099 66.5019C37.5351 66.6006 37.434 66.6758 37.3183 66.7187C37.0745 66.8087 36.9062 66.7187 36.889 66.4452C36.873 66.2373 36.8811 66.0282 36.9131 65.8221C37.5107 61.8408 37.6515 57.8284 37.7236 53.8125C37.7737 51.2904 37.5433 48.7705 37.0367 46.3001C36.5731 44.0741 35.9343 41.8965 35.2817 39.7224C33.7893 34.8094 31.7886 30.0681 29.3127 25.5768C27.2533 21.8732 24.9157 18.334 22.3203 14.9901C20.374 12.451 17.9159 10.3566 15.108 8.84514C13.9403 8.15875 12.7139 7.57943 11.4435 7.11416C10.3427 6.78389 9.19354 6.64802 8.04683 6.71257C7.78691 6.74564 7.53201 6.81075 7.28783 6.90644C6.96433 7.03791 6.61995 7.10945 6.27124 7.11762Z" fill="black" stroke="black" stroke-miterlimit="10"/>
<path d="M46.9175 95.543C47.0546 95.8811 47.1693 96.2281 47.2609 96.5816C47.6044 98.3645 47.9753 100.144 48.2569 101.937C48.7274 104.973 48.9438 108.034 49.1121 111.098C49.2331 113.019 49.0898 114.949 48.6862 116.831C48.4229 118.049 48.1355 119.262 47.8242 120.469C47.6169 121.2 47.2666 121.881 46.7938 122.474C46.7286 122.56 46.6496 122.636 46.5053 122.799C46.4949 122.683 46.5018 122.566 46.5259 122.453C47.1154 121.058 47.5162 119.59 47.7177 118.087C47.8345 117.416 47.9489 116.744 48.0611 116.072C48.2367 114.851 48.2666 113.614 48.1504 112.385C47.9821 109.872 47.807 107.359 47.5116 104.859C47.2163 102.36 46.7561 99.8427 46.3405 97.3397C46.2581 96.8481 46.21 96.4154 46.5981 96.0346C46.7191 95.8808 46.826 95.7162 46.9175 95.543Z" fill="black" stroke="black" stroke-miterlimit="10"/>
<path d="M84.9777 95.8447C85.4351 96.7054 85.5704 97.703 85.3589 98.6558C84.4294 103.532 83.8702 108.473 83.6864 113.435C83.6672 115.196 83.8423 116.954 84.2084 118.676C84.4118 120.084 84.7975 121.458 85.3555 122.765C85.3713 122.803 85.3794 122.843 85.3794 122.884C85.3794 122.925 85.3713 122.966 85.3555 123.004C84.9642 122.642 84.6519 122.202 84.4385 121.713C84.1511 121.055 83.9213 120.374 83.7516 119.677C83.4082 118.071 83.0853 116.454 82.8346 114.83C82.5839 113.206 82.7694 111.5 82.8655 109.835C82.9868 107.318 83.2391 104.809 83.6211 102.319C83.9165 100.508 84.2737 98.7078 84.6171 96.9041C84.6808 96.6271 84.7646 96.3552 84.8678 96.0905C84.8972 96.0055 84.934 95.9233 84.9777 95.8447Z" fill="black" stroke="black" stroke-miterlimit="10"/>
<path d="M98.3066 85.6735C98.0421 85.7496 99.2511 84.7664 99.6426 84.4029C99.9231 84.184 100.135 83.8884 100.254 83.5513C100.563 82.6126 100.642 81.6124 100.484 80.6363C100.364 79.5555 99.9192 78.5374 99.2098 77.7179C98.492 76.8939 97.7537 76.0908 97.0084 75.2945C96.5688 74.8237 96.0983 74.3875 95.6552 73.9097C95.2912 73.5358 95.3942 73.3593 95.7274 72.9992C95.756 72.9603 95.7925 72.9278 95.8345 72.904C95.8764 72.8802 95.9229 72.8655 95.9708 72.8609C96.0187 72.8563 96.0671 72.862 96.1127 72.8775C96.1583 72.8929 96.2002 72.9179 96.2356 72.9508C96.3593 73.0373 96.4898 73.1169 96.6066 73.2139C98.0384 74.3831 99.3263 75.7209 100.443 77.1986C101.501 78.5834 101.878 81.8515 100.628 83.6655C100.268 84.1723 99.8813 84.6599 99.4709 85.1265C99.2717 85.3827 98.4199 86.172 98.3066 85.6735Z" fill="black" stroke="black" stroke-miterlimit="10"/>
<path d="M44.3418 98.5174C44.3452 98.7673 44.3314 99.0172 44.3006 99.2652C43.7991 101.837 42.5834 103.987 40.4849 105.559C40.0672 105.847 39.6287 106.103 39.173 106.324C38.9955 106.385 38.8106 106.421 38.6235 106.431L38.5616 106.286C38.7746 106.154 38.991 106.03 39.2005 105.898C39.4951 105.736 39.7764 105.551 40.0419 105.344C41.0786 104.457 41.8849 103.328 42.391 102.056C42.7516 101.142 43.0779 100.214 43.4214 99.286C43.4614 99.1008 43.5496 98.9298 43.677 98.7904C43.8043 98.6511 43.9662 98.5485 44.146 98.4932C44.2118 98.4956 44.2773 98.5038 44.3418 98.5174Z" fill="black" stroke="black" stroke-miterlimit="10"/>
<path d="M93.3508 106.594C93.2363 106.666 93.1032 106.703 92.9682 106.699C92.8332 106.695 92.7023 106.652 92.5918 106.573C91.6044 106.1 90.7233 105.428 90.0022 104.6C88.6285 103.17 87.9416 101.412 87.5535 99.5075C87.531 99.261 87.531 99.013 87.5535 98.7666C87.7197 98.7707 87.8811 98.8241 88.0173 98.9202C88.1535 99.0162 88.2586 99.1507 88.3194 99.3067C88.4396 99.6252 88.5701 99.9402 88.6903 100.259C89.0131 101.086 89.3222 101.92 89.6588 102.741C90.0742 103.678 90.6654 104.526 91.4001 105.237C91.7814 105.684 92.263 106.033 92.8047 106.255C92.9976 106.349 93.1806 106.463 93.3508 106.594Z" fill="black" stroke="black" stroke-miterlimit="10"/>
</g>
<defs>
<clipPath id="clip0">
<rect width="129" height="164" fill="white"/>
</clipPath>
</defs>
</svg>
