<svg width="40" height="125" viewBox="0 0 40 125" fill="none" xmlns="http://www.w3.org/2000/svg">
<path d="M39.9999 125L-0.000102997 125L-4.83576e-05 -2.22579e-06L40 1.52588e-05L39.9999 125Z" fill="black" fill-opacity="0.25"/>
<path d="M16.4213 53.0003C16.1442 52.9942 15.8721 53.0745 15.6429 53.2302C15.4136 53.3859 15.2385 53.6093 15.142 53.8691C15.0455 54.1289 15.0323 54.4122 15.1043 54.6799C15.1763 54.9475 15.3299 55.1859 15.5437 55.3622L23.7026 62.3518L15.5437 69.3389C15.3958 69.4476 15.2719 69.5856 15.1798 69.7444C15.0877 69.9033 15.0294 70.0794 15.0086 70.2618C14.9877 70.4442 15.0047 70.6289 15.0586 70.8044C15.1124 70.9799 15.2019 71.1424 15.3214 71.2817C15.441 71.421 15.588 71.534 15.7533 71.6139C15.9186 71.6938 16.0986 71.7386 16.282 71.7457C16.4654 71.7528 16.6483 71.722 16.8193 71.6551C16.9902 71.5882 17.1455 71.4868 17.2755 71.3571L26.6166 63.3648C26.7633 63.2396 26.8811 63.0842 26.9619 62.9091C27.0426 62.734 27.0845 62.5434 27.0845 62.3506C27.0845 62.1577 27.0426 61.9671 26.9619 61.792C26.8811 61.6169 26.7633 61.4614 26.6166 61.3362L17.2755 53.3362C17.0395 53.1266 16.7368 53.0074 16.4213 53L16.4213 53.0003Z" fill="white"/>
</svg>

