<svg width="40" height="125" viewBox="0 0 40 125" fill="none" xmlns="http://www.w3.org/2000/svg">
<path d="M0 0L40 1.39877e-05L40 125L-4.37114e-05 125L0 0Z" fill="black" fill-opacity="0.25"/>
<path d="M23.5786 71.9997C23.8557 72.0058 24.1278 71.9255 24.3571 71.7698C24.5863 71.6141 24.7614 71.3907 24.8579 71.1309C24.9545 70.8711 24.9676 70.5878 24.8957 70.3201C24.8237 70.0525 24.6701 69.8141 24.4562 69.6378L16.2974 62.6482L24.4562 55.6611C24.6042 55.5524 24.728 55.4144 24.8201 55.2556C24.9122 55.0967 24.9705 54.9206 24.9914 54.7382C25.0122 54.5558 24.9952 54.3711 24.9414 54.1956C24.8875 54.0201 24.7981 53.8576 24.6785 53.7183C24.559 53.579 24.412 53.466 24.2467 53.3861C24.0814 53.3062 23.9014 53.2614 23.7179 53.2543C23.5345 53.2472 23.3516 53.278 23.1806 53.3449C23.0097 53.4118 22.8544 53.5132 22.7245 53.6429L13.3833 61.6352C13.2366 61.7604 13.1188 61.9158 13.0381 62.0909C12.9573 62.266 12.9155 62.4566 12.9155 62.6494C12.9155 62.8423 12.9573 63.0329 13.0381 63.208C13.1188 63.3831 13.2366 63.5386 13.3833 63.6638L22.7245 71.6638C22.9604 71.8734 23.2631 71.9926 23.5786 72L23.5786 71.9997Z" fill="white"/>
</svg>
