<svg width="20" height="20" viewBox="0 0 20 20" fill="none" xmlns="http://www.w3.org/2000/svg">
<path fill-rule="evenodd" clip-rule="evenodd" d="M12.8824 3.74036C15.4069 6.26487 15.4069 10.3579 12.8824 12.8824C10.3579 15.4069 6.26487 15.4069 3.74036 12.8824C1.21585 10.3579 1.21585 6.26487 3.74036 3.74036C6.26487 1.21585 10.3579 1.21585 12.8824 3.74036ZM14.8048 13.5005C17.4193 10.2371 17.2138 5.45972 14.1884 2.43435C10.9426 -0.81145 5.68015 -0.81145 2.43435 2.43435C-0.81145 5.68015 -0.81145 10.9426 2.43435 14.1884C5.45981 17.2139 10.2374 17.4193 13.5008 14.8046C13.512 14.8171 13.5236 14.8293 13.5356 14.8414L18.4236 19.7293C18.7842 20.0899 19.3689 20.0899 19.7296 19.7293C20.0902 19.3686 20.0902 18.7839 19.7296 18.4233L14.8416 13.5354C14.8296 13.5233 14.8173 13.5117 14.8048 13.5005Z" fill="black"/>
</svg>
