<svg width="16" height="17" viewBox="0 0 16 17" fill="none" xmlns="http://www.w3.org/2000/svg">
<path d="M12.8609 2.38149C13.1213 2.12118 13.5433 2.12118 13.8036 2.38149C14.0639 2.6418 14.0639 3.06385 13.8036 3.32416L7.80452 9.32325C7.54421 9.58356 7.12216 9.58356 6.86185 9.32325C6.60154 9.06294 6.60154 8.64089 6.86185 8.38058L12.8609 2.38149Z" fill="#812B2B"/>
<path d="M12.6667 3.52083H10C9.63185 3.52083 9.33337 3.22236 9.33337 2.85417C9.33337 2.48598 9.63185 2.1875 10 2.1875H13.3334C13.7016 2.1875 14 2.48598 14 2.85417V6.1875C14 6.55569 13.7016 6.85417 13.3334 6.85417C12.9652 6.85417 12.6667 6.55569 12.6667 6.1875V3.52083Z" fill="#812B2B"/>
<path d="M11.3334 9.18766C11.3334 8.81947 11.6319 8.521 12 8.521C12.3682 8.521 12.6667 8.81947 12.6667 9.18766V12.9377C12.6667 13.9962 11.8086 14.8543 10.75 14.8543H3.25004C2.19149 14.8543 1.33337 13.9962 1.33337 12.9377L1.33338 5.43766C1.33338 4.37911 2.1915 3.521 3.25004 3.521C5.938 3.521 5.938 3.521 7.31254 3.521C7.68073 3.521 7.97921 3.81948 7.97921 4.18767C7.97921 4.55586 7.68073 4.85433 7.31254 4.85433C5.938 4.85433 5.938 4.85433 3.25004 4.85433C2.92787 4.85433 2.66671 5.11549 2.66671 5.43766L2.66671 12.9377C2.66671 13.2598 2.92787 13.521 3.25004 13.521H10.75C11.0722 13.521 11.3334 13.2598 11.3334 12.9377V9.18766Z" fill="#812B2B"/>
</svg>
