<svg width="16" height="15" viewBox="0 0 16 15" fill="none" xmlns="http://www.w3.org/2000/svg">
<path fill-rule="evenodd" clip-rule="evenodd" d="M3.33306 1C3.33306 0.447715 3.78077 0 4.33306 0H6.33306C6.88534 0 7.33306 0.447715 7.33306 1V1.33306H15.3333C15.7015 1.33306 16 1.63154 16 1.99973C16 2.36792 15.7015 2.66639 15.3333 2.66639H7.33306V3C7.33306 3.55228 6.88534 4 6.33306 4H4.33306C3.78077 4 3.33306 3.55228 3.33306 3V2.66639H0.666667C0.298477 2.66639 0 2.36792 0 1.99973C0 1.63154 0.298477 1.33306 0.666667 1.33306H3.33306V1ZM16 7.33361C16 7.7018 15.7015 8.00027 15.3333 8.00027H13.3331V8.33306C13.3331 8.88534 12.8853 9.33306 12.3331 9.33306H10.3331C9.78077 9.33306 9.33306 8.88534 9.33306 8.33306V8.00027H0.666667C0.298477 8.00027 0 7.7018 0 7.33361C0 6.96542 0.298477 6.66694 0.666667 6.66694H9.33306V6.33306C9.33306 5.78077 9.78077 5.33306 10.3331 5.33306H12.3331C12.8853 5.33306 13.3331 5.78077 13.3331 6.33306V6.66694H15.3333C15.7015 6.66694 16 6.96542 16 7.33361ZM15.3333 13.3333C15.7015 13.3333 16 13.0349 16 12.6667C16 12.2985 15.7015 12 15.3333 12H7.33306V11.6669C7.33306 11.1147 6.88534 10.6669 6.33306 10.6669H4.33306C3.78077 10.6669 3.33306 11.1147 3.33306 11.6669V12H0.666667C0.298477 12 0 12.2985 0 12.6667C0 13.0349 0.298477 13.3333 0.666667 13.3333H3.33306V13.6669C3.33306 14.2192 3.78077 14.6669 4.33306 14.6669H6.33306C6.88534 14.6669 7.33306 14.2192 7.33306 13.6669V13.3333H15.3333ZM6.00033 1.33306H4.66699V2.66639H6.00033V1.33306ZM12.0003 6.66617H10.6669V7.9995H12.0003V6.66617ZM4.66694 12.0001H6.00027V13.3334H4.66694V12.0001Z" fill="black"/>
</svg>
