<svg width="16" height="14" viewBox="0 0 16 14" fill="none" xmlns="http://www.w3.org/2000/svg">
<path d="M8.38098 3.80957V7.61908L11.6419 9.55434L12.1905 8.62862L9.52383 7.04765V3.80957H8.38098Z" fill="white"/>
<path d="M9.13904 0C5.34857 0 2.28571 3.07046 2.28571 6.85714H0L2.96761 9.82475L3.02093 9.93521L6.09525 6.85714H3.80954C3.80954 3.91239 6.19811 1.52382 9.14286 1.52382C12.0876 1.52382 14.4762 3.91239 14.4762 6.85714C14.4762 9.80189 12.0876 12.1905 9.14286 12.1905C7.66857 12.1905 6.33904 11.5886 5.37525 10.6248L4.29714 11.7029C5.53525 12.9447 7.24571 13.7143 9.13904 13.7143C12.9295 13.7143 16 10.6438 16 6.85714C16 3.07046 12.9295 0 9.13904 0Z" fill="white"/>
</svg>
