<svg width="28" height="22" viewBox="0 0 28 22" fill="none" xmlns="http://www.w3.org/2000/svg">
<path d="M9.12178 21.5123C19.028 21.5123 24.4452 13.3053 24.4452 6.18881C24.4452 5.95572 24.4404 5.7236 24.43 5.49275C25.4814 4.73248 26.3953 3.78374 27.1164 2.70386C26.1515 3.13295 25.1129 3.42143 24.0237 3.55194C25.1355 2.88493 25.9892 1.83025 26.3918 0.572974C25.3513 1.18989 24.1988 1.63809 22.972 1.88017C21.9893 0.833354 20.5899 0.178711 19.0406 0.178711C16.0666 0.178711 13.6547 2.59052 13.6547 5.56355C13.6547 5.98638 13.702 6.39734 13.7943 6.7916C9.31827 6.56638 5.34899 4.42346 2.69301 1.16469C2.23068 1.96044 1.96388 2.88509 1.96388 3.87172C1.96388 5.73997 2.9147 7.38974 4.36044 8.35453C3.47688 8.3274 2.64694 8.08484 1.92134 7.6811C1.92054 7.70374 1.92054 7.72573 1.92054 7.74981C1.92054 10.3581 3.77691 12.5359 6.24154 13.0293C5.78884 13.1525 5.31255 13.2188 4.82132 13.2188C4.4749 13.2188 4.13714 13.1847 3.80902 13.1216C4.49464 15.2615 6.48298 16.8187 8.84021 16.8623C6.99683 18.3071 4.67476 19.1677 2.15106 19.1677C1.71698 19.1677 1.28789 19.1428 0.866333 19.0931C3.24989 20.6208 6.0802 21.5124 9.12194 21.5124" fill="white"/>
</svg>
