<svg width="20" height="20" viewBox="0 0 20 20" fill="none" xmlns="http://www.w3.org/2000/svg">
<path d="M13.0833 9.76417C13.9032 9.12303 14.5026 8.24201 14.7978 7.24397C15.0931 6.24593 15.0696 5.18061 14.7305 4.19658C14.3915 3.21255 13.7538 2.35886 12.9064 1.75455C12.059 1.15024 11.0441 0.825439 10.0033 0.825439C8.96248 0.825439 7.94762 1.15024 7.10021 1.75455C6.25281 2.35886 5.61512 3.21255 5.27605 4.19658C4.93698 5.18061 4.91345 6.24593 5.20874 7.24397C5.50402 8.24201 6.1034 9.12303 6.92329 9.76417C5.37427 10.3805 4.04551 11.447 3.10851 12.8259C2.17152 14.2048 1.66928 15.8329 1.66663 17.5V18.3333C1.66663 18.5544 1.75442 18.7663 1.9107 18.9226C2.06698 19.0789 2.27895 19.1667 2.49996 19.1667H17.5C17.721 19.1667 17.9329 19.0789 18.0892 18.9226C18.2455 18.7663 18.3333 18.5544 18.3333 18.3333V17.5C18.3312 15.8336 17.8299 14.2061 16.8942 12.8273C15.9584 11.4485 14.6311 10.3816 13.0833 9.76417ZM6.66663 5.83334C6.66663 5.17407 6.86212 4.5296 7.22839 3.98144C7.59467 3.43327 8.11526 3.00603 8.72435 2.75374C9.33344 2.50145 10.0037 2.43544 10.6503 2.56405C11.2969 2.69267 11.8908 3.01014 12.357 3.47631C12.8232 3.94249 13.1406 4.53643 13.2692 5.18304C13.3979 5.82964 13.3319 6.49986 13.0796 7.10895C12.8273 7.71804 12.4 8.23863 11.8519 8.6049C11.3037 8.97117 10.6592 9.16667 9.99996 9.16667C9.1159 9.16667 8.26806 8.81548 7.64294 8.19036C7.01782 7.56524 6.66663 6.71739 6.66663 5.83334ZM3.33329 17.5C3.33329 15.7319 4.03567 14.0362 5.28591 12.786C6.53616 11.5357 8.23185 10.8333 9.99996 10.8333C11.7681 10.8333 13.4638 11.5357 14.714 12.786C15.9642 14.0362 16.6666 15.7319 16.6666 17.5H3.33329Z" fill="black"/>
</svg>
