<svg width="26" height="26" viewBox="0 0 26 26" fill="none" xmlns="http://www.w3.org/2000/svg">
<path d="M23.6221 6.49447H23.2986V3.35281C23.2986 2.04164 22.2318 0.974854 20.9206 0.974854H3.67318C1.76991 0.974854 0.200667 2.43063 0.0195182 4.28709C-0.00814679 4.41827 0.00170438 3.2494 0.00170438 21.3538C0.00170438 23.3782 1.64869 25.0252 3.67313 25.0252H23.622C24.9332 25.0252 26 23.9585 26 22.6472V8.87243C26 7.56126 24.9333 6.49447 23.6221 6.49447ZM3.67318 2.60826H20.9206C21.3312 2.60826 21.6652 2.94228 21.6652 3.35286V6.49452H3.67318C2.58123 6.49452 1.68733 5.63124 1.63751 4.55139C1.68728 3.47149 2.58118 2.60826 3.67318 2.60826ZM23.6221 23.3918H3.67318C2.54938 23.3918 1.63511 22.4776 1.63511 21.3538V7.50889C2.21858 7.89972 2.91969 8.12783 3.67318 8.12783H23.6221C24.0326 8.12783 24.3667 8.46185 24.3667 8.87243V12.1833H18.2208C16.1277 12.1833 14.4248 13.8862 14.4248 15.9793C14.4248 18.0724 16.1277 19.7752 18.2208 19.7752H24.3667V22.6472C24.3667 23.0578 24.0326 23.3918 23.6221 23.3918ZM24.3667 18.1419H18.2208C17.0283 18.1419 16.0581 17.1718 16.0581 15.9793C16.0581 14.7869 17.0283 13.8167 18.2208 13.8167H24.3667V18.1419Z" fill="white"/>
</svg>
