<svg width="16" height="16" viewBox="0 0 16 16" fill="none" xmlns="http://www.w3.org/2000/svg">
<g clip-path="url(#clip0)">
<path d="M9.83997 13.7403C10.6142 13.4929 11.3299 13.0903 11.9433 12.5569V3.44359C11.3296 2.91076 10.614 2.50817 9.83997 2.26025V13.7403Z" fill="white"/>
<path d="M6.15997 2.26025C5.38569 2.50757 4.66999 2.91022 4.05664 3.44359V12.5569C4.67037 13.0898 5.38595 13.4923 6.15997 13.7403V2.26025Z" fill="white"/>
<path d="M12.6901 11.7835C13.5543 10.7119 14.0256 9.37676 14.0256 8.00013C14.0256 6.6235 13.5543 5.28837 12.6901 4.2168V11.7835Z" fill="white"/>
<path d="M9.09341 2.07336C8.62253 1.99165 8.14351 1.96702 7.66674 2.00003C7.41169 2.01317 7.1578 2.04323 6.90674 2.09003V13.9267C7.37694 14.014 7.85596 14.0442 8.33341 14.0167C8.58845 14.0036 8.84235 13.9735 9.09341 13.9267V2.07336ZM8.00007 13.3134C7.9058 13.3134 7.81364 13.2854 7.73525 13.233C7.65686 13.1807 7.59577 13.1062 7.55969 13.0191C7.52361 12.932 7.51417 12.8362 7.53256 12.7437C7.55096 12.6512 7.59636 12.5663 7.66302 12.4996C7.72968 12.433 7.81462 12.3876 7.90708 12.3692C7.99954 12.3508 8.09539 12.3602 8.18248 12.3963C8.26958 12.4324 8.34403 12.4935 8.39641 12.5719C8.44878 12.6503 8.47674 12.7424 8.47674 12.8367C8.47674 12.9631 8.42652 13.0844 8.33713 13.1737C8.24773 13.2631 8.12649 13.3134 8.00007 13.3134Z" fill="white"/>
<path d="M3.30998 4.2168C2.44578 5.28837 1.97449 6.6235 1.97449 8.00013C1.97449 9.37676 2.44578 10.7119 3.30998 11.7835V4.2168Z" fill="white"/>
<path d="M8 0C6.41775 0 4.87104 0.469192 3.55544 1.34824C2.23985 2.22729 1.21447 3.47672 0.608967 4.93853C0.00346629 6.40034 -0.15496 8.00887 0.153721 9.56072C0.462403 11.1126 1.22433 12.538 2.34315 13.6569C3.46197 14.7757 4.88743 15.5376 6.43928 15.8463C7.99113 16.155 9.59966 15.9965 11.0615 15.391C12.5233 14.7855 13.7727 13.7602 14.6518 12.4446C15.5308 11.129 16 9.58225 16 8C16 5.87827 15.1571 3.84344 13.6569 2.34315C12.1566 0.842855 10.1217 0 8 0V0ZM8 14.88C6.6387 14.8826 5.30722 14.4814 4.17405 13.727C3.04089 12.9726 2.15699 11.899 1.63421 10.6421C1.11144 9.38519 0.973287 8.00144 1.23725 6.66597C1.5012 5.3305 2.15541 4.10336 3.11706 3.13984C4.07871 2.17632 5.30459 1.51974 6.63954 1.25319C7.97449 0.98664 9.35851 1.12211 10.6164 1.64244C11.8744 2.16278 12.9497 3.0446 13.7062 4.17629C14.4628 5.30799 14.8667 6.6387 14.8667 8C14.8667 9.82238 14.1437 11.5703 12.8563 12.8602C11.5689 14.1501 9.82238 14.8765 8 14.88Z" fill="white"/>
</g>
<defs>
<clipPath id="clip0">
<rect width="16" height="16" fill="white"/>
</clipPath>
</defs>
</svg>
