<svg width="28" height="19" viewBox="0 0 28 19" fill="red" xmlns="http://www.w3.org/2000/svg">
<path d="M26.5704 3.43938C26.2679 2.31481 25.3813 1.42833 24.2569 1.12552C22.2027 0.563477 13.986 0.563477 13.986 0.563477C13.986 0.563477 5.76958 0.563477 3.71544 1.10421C2.61266 1.4067 1.70439 2.31497 1.4019 3.43938C0.861328 5.49336 0.861328 9.75306 0.861328 9.75306C0.861328 9.75306 0.861328 14.0342 1.4019 16.0667C1.70471 17.1911 2.59103 18.0776 3.7156 18.3804C5.79121 18.9426 13.9863 18.9426 13.9863 18.9426C13.9863 18.9426 22.2027 18.9426 24.2569 18.4019C25.3815 18.0993 26.2679 17.2128 26.5708 16.0884C27.1112 14.0342 27.1112 9.77469 27.1112 9.77469C27.1112 9.77469 27.1328 5.49336 26.5704 3.43938ZM11.37 13.6883V5.8178L18.2026 9.75306L11.37 13.6883Z" fill="white"/>
</svg>
